<mxfile host="app.diagrams.net" agent="Mozilla/5.0 (Macintosh; Intel Mac OS X 10_15_7) AppleWebKit/537.36 (KHTML, like Gecko) Chrome/128.0.0.0 Safari/537.36" version="24.7.14">
  <diagram name="Page-1" id="2c0d36ab-eaac-3732-788b-9136903baeff">
    <mxGraphModel dx="3984" dy="4484" grid="1" gridSize="10" guides="1" tooltips="1" connect="1" arrows="1" fold="1" page="1" pageScale="1.5" pageWidth="1169" pageHeight="827" background="none" math="0" shadow="0">
      <root>
        <mxCell id="0" />
        <mxCell id="1" parent="0" />
        <mxCell id="LaeifT_SB8m0OlA6vYsi-180" value="" style="fillColor=#12AAB5;strokeColor=none;opacity=30;container=0;" vertex="1" parent="1">
          <mxGeometry x="2790" y="412.39" width="973" height="63.22" as="geometry" />
        </mxCell>
        <mxCell id="yD7QGmuIfpxSSi4D3mGt-193" value="" style="fillColor=#FF8000;strokeColor=none;opacity=30;" parent="1" vertex="1">
          <mxGeometry x="2220" y="400" width="162" height="65" as="geometry" />
        </mxCell>
        <mxCell id="DHhSm0oX6yLHgPmUd7Qw-227" value="" style="fillColor=#9933FF;strokeColor=none;opacity=30;" parent="1" vertex="1">
          <mxGeometry x="920" y="762.75" width="179" height="61" as="geometry" />
        </mxCell>
        <mxCell id="DHhSm0oX6yLHgPmUd7Qw-228" value="" style="fillColor=#FF8000;strokeColor=none;opacity=30;" parent="1" vertex="1">
          <mxGeometry x="920" y="823.75" width="179" height="59" as="geometry" />
        </mxCell>
        <mxCell id="DHhSm0oX6yLHgPmUd7Qw-224" value="" style="fillColor=#9933FF;strokeColor=none;opacity=30;" parent="1" vertex="1">
          <mxGeometry x="920" y="643" width="179" height="61" as="geometry" />
        </mxCell>
        <mxCell id="DHhSm0oX6yLHgPmUd7Qw-225" value="" style="fillColor=#FF8000;strokeColor=none;opacity=30;" parent="1" vertex="1">
          <mxGeometry x="920" y="704" width="179" height="59" as="geometry" />
        </mxCell>
        <mxCell id="DHhSm0oX6yLHgPmUd7Qw-223" value="" style="fillColor=#9933FF;strokeColor=none;opacity=30;" parent="1" vertex="1">
          <mxGeometry x="177" y="764" width="163" height="304" as="geometry" />
        </mxCell>
        <mxCell id="DHhSm0oX6yLHgPmUd7Qw-222" value="" style="fillColor=#FF8000;strokeColor=none;opacity=30;" parent="1" vertex="1">
          <mxGeometry x="177" y="704" width="163" height="60" as="geometry" />
        </mxCell>
        <mxCell id="82P1P7-e6ae5l4yFsAXw-133" value="" style="fillColor=#9933FF;strokeColor=none;opacity=30;" parent="1" vertex="1">
          <mxGeometry x="177" y="400" width="163" height="304" as="geometry" />
        </mxCell>
        <mxCell id="122" value="" style="fillColor=#CC99FF;strokeColor=none;opacity=30;" parent="1" vertex="1">
          <mxGeometry x="160" y="290" width="3610" height="85.5" as="geometry" />
        </mxCell>
        <mxCell id="10" value="/" style="rounded=1;fillColor=#23445D;gradientColor=none;strokeColor=none;fontColor=#FFFFFF;fontStyle=1;fontFamily=Tahoma;fontSize=14" parent="1" vertex="1">
          <mxGeometry x="187" y="310" width="143" height="45.5" as="geometry" />
        </mxCell>
        <mxCell id="41" value=".gitignore" style="rounded=1;fillColor=#23445D;gradientColor=none;strokeColor=none;fontColor=#FFFFFF;fontStyle=1;fontFamily=Tahoma;fontSize=14" parent="1" vertex="1">
          <mxGeometry x="187" y="410.5" width="143" height="45.5" as="geometry" />
        </mxCell>
        <mxCell id="42" value="404.html" style="rounded=1;fillColor=#23445D;gradientColor=none;strokeColor=none;fontColor=#FFFFFF;fontStyle=1;fontFamily=Tahoma;fontSize=14" parent="1" vertex="1">
          <mxGeometry x="187" y="470.5" width="143" height="45.5" as="geometry" />
        </mxCell>
        <mxCell id="43" value="CNAME" style="rounded=1;fillColor=#23445D;gradientColor=none;strokeColor=none;fontColor=#FFFFFF;fontStyle=1;fontFamily=Tahoma;fontSize=14" parent="1" vertex="1">
          <mxGeometry x="187" y="530.5" width="143" height="45.5" as="geometry" />
        </mxCell>
        <mxCell id="59" value="" style="edgeStyle=elbowEdgeStyle;elbow=vertical;strokeWidth=2;rounded=0;entryX=0.5;entryY=0;entryDx=0;entryDy=0;" parent="1" source="2" target="82P1P7-e6ae5l4yFsAXw-139" edge="1">
          <mxGeometry x="347" y="225.5" width="100" height="100" as="geometry">
            <mxPoint x="922" y="225.5" as="sourcePoint" />
            <mxPoint x="717" y="285.5" as="targetPoint" />
            <Array as="points">
              <mxPoint x="790" y="270" />
            </Array>
          </mxGeometry>
        </mxCell>
        <mxCell id="61" value="" style="edgeStyle=elbowEdgeStyle;elbow=vertical;strokeWidth=2;rounded=0;entryX=0.5;entryY=0;entryDx=0;entryDy=0;" parent="1" source="2" target="10" edge="1">
          <mxGeometry x="-23" y="135.5" width="100" height="100" as="geometry">
            <mxPoint x="37" y="185.5" as="sourcePoint" />
            <mxPoint x="262" y="285.5" as="targetPoint" />
            <Array as="points">
              <mxPoint x="580" y="270" />
            </Array>
          </mxGeometry>
        </mxCell>
        <mxCell id="103" value="" style="edgeStyle=elbowEdgeStyle;elbow=vertical;strokeWidth=2;rounded=0;entryX=0.5;entryY=0;entryDx=0;entryDy=0;" parent="1" source="10" target="82P1P7-e6ae5l4yFsAXw-133" edge="1">
          <mxGeometry x="-23" y="135.5" width="100" height="100" as="geometry">
            <mxPoint x="-813" y="172.75" as="sourcePoint" />
            <mxPoint x="260" y="364.25" as="targetPoint" />
          </mxGeometry>
        </mxCell>
        <mxCell id="82P1P7-e6ae5l4yFsAXw-124" value="about.html" style="rounded=1;fillColor=#23445D;gradientColor=none;strokeColor=none;fontColor=#FFFFFF;fontStyle=1;fontFamily=Tahoma;fontSize=14" parent="1" vertex="1">
          <mxGeometry x="187" y="590.5" width="143" height="45.5" as="geometry" />
        </mxCell>
        <mxCell id="82P1P7-e6ae5l4yFsAXw-125" value="ads.txt" style="rounded=1;fillColor=#23445D;gradientColor=none;strokeColor=none;fontColor=#FFFFFF;fontStyle=1;fontFamily=Tahoma;fontSize=14" parent="1" vertex="1">
          <mxGeometry x="187" y="650.5" width="143" height="45.5" as="geometry" />
        </mxCell>
        <mxCell id="82P1P7-e6ae5l4yFsAXw-126" value="index.html" style="rounded=1;fillColor=#23445D;gradientColor=none;strokeColor=none;fontColor=#FFFFFF;fontStyle=1;fontFamily=Tahoma;fontSize=14" parent="1" vertex="1">
          <mxGeometry x="187" y="710.5" width="143" height="45.5" as="geometry" />
        </mxCell>
        <mxCell id="82P1P7-e6ae5l4yFsAXw-127" value="post.html" style="rounded=1;fillColor=#23445D;gradientColor=none;strokeColor=none;fontColor=#FFFFFF;fontStyle=1;fontFamily=Tahoma;fontSize=14" parent="1" vertex="1">
          <mxGeometry x="187" y="770.5" width="143" height="45.5" as="geometry" />
        </mxCell>
        <mxCell id="82P1P7-e6ae5l4yFsAXw-128" value="release_note.html" style="rounded=1;fillColor=#23445D;gradientColor=none;strokeColor=none;fontColor=#FFFFFF;fontStyle=1;fontFamily=Tahoma;fontSize=14" parent="1" vertex="1">
          <mxGeometry x="187" y="830.5" width="143" height="45.5" as="geometry" />
        </mxCell>
        <mxCell id="82P1P7-e6ae5l4yFsAXw-129" value="robots.txt" style="rounded=1;fillColor=#23445D;gradientColor=none;strokeColor=none;fontColor=#FFFFFF;fontStyle=1;fontFamily=Tahoma;fontSize=14" parent="1" vertex="1">
          <mxGeometry x="187" y="890.5" width="143" height="45.5" as="geometry" />
        </mxCell>
        <mxCell id="82P1P7-e6ae5l4yFsAXw-130" value="site-map.html" style="rounded=1;fillColor=#23445D;gradientColor=none;strokeColor=none;fontColor=#FFFFFF;fontStyle=1;fontFamily=Tahoma;fontSize=14" parent="1" vertex="1">
          <mxGeometry x="187" y="950.5" width="143" height="45.5" as="geometry" />
        </mxCell>
        <mxCell id="82P1P7-e6ae5l4yFsAXw-131" value="sitemap.xml" style="rounded=1;fillColor=#23445D;gradientColor=none;strokeColor=none;fontColor=#FFFFFF;fontStyle=1;fontFamily=Tahoma;fontSize=14" parent="1" vertex="1">
          <mxGeometry x="187" y="1010.5" width="143" height="45.5" as="geometry" />
        </mxCell>
        <mxCell id="82P1P7-e6ae5l4yFsAXw-137" value="" style="fillColor=#FF8000;strokeColor=none;opacity=30;" parent="1" vertex="1">
          <mxGeometry x="380" y="400" width="500" height="1325" as="geometry" />
        </mxCell>
        <mxCell id="82P1P7-e6ae5l4yFsAXw-139" value="about" style="rounded=1;fillColor=#23445D;gradientColor=none;strokeColor=none;fontColor=#FFFFFF;fontStyle=1;fontFamily=Tahoma;fontSize=14" parent="1" vertex="1">
          <mxGeometry x="558.5" y="310" width="143" height="45.5" as="geometry" />
        </mxCell>
        <mxCell id="82P1P7-e6ae5l4yFsAXw-143" value="" style="edgeStyle=elbowEdgeStyle;elbow=vertical;strokeWidth=2;rounded=0;entryX=0.5;entryY=0;entryDx=0;entryDy=0;" parent="1" source="82P1P7-e6ae5l4yFsAXw-139" target="82P1P7-e6ae5l4yFsAXw-137" edge="1">
          <mxGeometry x="-23" y="135.5" width="100" height="100" as="geometry">
            <mxPoint x="-610" y="172.75" as="sourcePoint" />
            <mxPoint x="462" y="367.25" as="targetPoint" />
          </mxGeometry>
        </mxCell>
        <mxCell id="82P1P7-e6ae5l4yFsAXw-140" value="admin_console.html" style="rounded=1;fillColor=#23445D;gradientColor=none;strokeColor=none;fontColor=#FFFFFF;fontStyle=1;fontFamily=Tahoma;fontSize=14" parent="1" vertex="1">
          <mxGeometry x="390" y="410.5" width="230" height="45.5" as="geometry" />
        </mxCell>
        <mxCell id="82P1P7-e6ae5l4yFsAXw-141" value="akihisa.html" style="rounded=1;fillColor=#23445D;gradientColor=none;strokeColor=none;fontColor=#FFFFFF;fontStyle=1;fontFamily=Tahoma;fontSize=14" parent="1" vertex="1">
          <mxGeometry x="640" y="410.5" width="230" height="45.5" as="geometry" />
        </mxCell>
        <mxCell id="82P1P7-e6ae5l4yFsAXw-142" value="anteena.html" style="rounded=1;fillColor=#23445D;gradientColor=none;strokeColor=none;fontColor=#FFFFFF;fontStyle=1;fontFamily=Tahoma;fontSize=14" parent="1" vertex="1">
          <mxGeometry x="390" y="470.5" width="230" height="45.5" as="geometry" />
        </mxCell>
        <mxCell id="82P1P7-e6ae5l4yFsAXw-144" value="asobi-bar_aira.html" style="rounded=1;fillColor=#23445D;gradientColor=none;strokeColor=none;fontColor=#FFFFFF;fontStyle=1;fontFamily=Tahoma;fontSize=14" parent="1" vertex="1">
          <mxGeometry x="640" y="470.5" width="230" height="45.5" as="geometry" />
        </mxCell>
        <mxCell id="82P1P7-e6ae5l4yFsAXw-145" value="bar_hanare.html" style="rounded=1;fillColor=#23445D;gradientColor=none;strokeColor=none;fontColor=#FFFFFF;fontStyle=1;fontFamily=Tahoma;fontSize=14" parent="1" vertex="1">
          <mxGeometry x="390" y="530.5" width="230" height="45.5" as="geometry" />
        </mxCell>
        <mxCell id="82P1P7-e6ae5l4yFsAXw-146" value="bar_masquerade.html" style="rounded=1;fillColor=#23445D;gradientColor=none;strokeColor=none;fontColor=#FFFFFF;fontStyle=1;fontFamily=Tahoma;fontSize=14" parent="1" vertex="1">
          <mxGeometry x="640" y="530.5" width="230" height="45.5" as="geometry" />
        </mxCell>
        <mxCell id="82P1P7-e6ae5l4yFsAXw-147" value="fermata.html" style="rounded=1;fillColor=#23445D;gradientColor=none;strokeColor=none;fontColor=#FFFFFF;fontStyle=1;fontFamily=Tahoma;fontSize=14" parent="1" vertex="1">
          <mxGeometry x="390" y="590.5" width="230" height="45.5" as="geometry" />
        </mxCell>
        <mxCell id="82P1P7-e6ae5l4yFsAXw-148" value="goemon.html" style="rounded=1;fillColor=#23445D;gradientColor=none;strokeColor=none;fontColor=#FFFFFF;fontStyle=1;fontFamily=Tahoma;fontSize=14" parent="1" vertex="1">
          <mxGeometry x="640" y="590.5" width="230" height="45.5" as="geometry" />
        </mxCell>
        <mxCell id="82P1P7-e6ae5l4yFsAXw-149" value="gyouza_sankaku.html" style="rounded=1;fillColor=#23445D;gradientColor=none;strokeColor=none;fontColor=#FFFFFF;fontStyle=1;fontFamily=Tahoma;fontSize=14" parent="1" vertex="1">
          <mxGeometry x="390" y="650.5" width="230" height="45.5" as="geometry" />
        </mxCell>
        <mxCell id="82P1P7-e6ae5l4yFsAXw-150" value="hokkoriba-ru_hoshiboshi.html" style="rounded=1;fillColor=#23445D;gradientColor=none;strokeColor=none;fontColor=#FFFFFF;fontStyle=1;fontFamily=Tahoma;fontSize=14" parent="1" vertex="1">
          <mxGeometry x="640" y="650.5" width="230" height="45.5" as="geometry" />
        </mxCell>
        <mxCell id="82P1P7-e6ae5l4yFsAXw-151" value="ichimaru_ramen.html" style="rounded=1;fillColor=#23445D;gradientColor=none;strokeColor=none;fontColor=#FFFFFF;fontStyle=1;fontFamily=Tahoma;fontSize=14" parent="1" vertex="1">
          <mxGeometry x="390" y="710.5" width="230" height="45.5" as="geometry" />
        </mxCell>
        <mxCell id="82P1P7-e6ae5l4yFsAXw-163" value="karaoke-bar_tsu-yan.html" style="rounded=1;fillColor=#23445D;gradientColor=none;strokeColor=none;fontColor=#FFFFFF;fontStyle=1;fontFamily=Tahoma;fontSize=14" parent="1" vertex="1">
          <mxGeometry x="640" y="710.5" width="230" height="45.5" as="geometry" />
        </mxCell>
        <mxCell id="82P1P7-e6ae5l4yFsAXw-165" value="kitchen_725.html" style="rounded=1;fillColor=#23445D;gradientColor=none;strokeColor=none;fontColor=#FFFFFF;fontStyle=1;fontFamily=Tahoma;fontSize=14" parent="1" vertex="1">
          <mxGeometry x="390" y="770.5" width="230" height="45.5" as="geometry" />
        </mxCell>
        <mxCell id="82P1P7-e6ae5l4yFsAXw-167" value="kokure.html" style="rounded=1;fillColor=#23445D;gradientColor=none;strokeColor=none;fontColor=#FFFFFF;fontStyle=1;fontFamily=Tahoma;fontSize=14" parent="1" vertex="1">
          <mxGeometry x="640" y="770.5" width="230" height="45.5" as="geometry" />
        </mxCell>
        <mxCell id="82P1P7-e6ae5l4yFsAXw-168" value="?.html" style="rounded=1;fillColor=#23445D;gradientColor=none;strokeColor=none;fontColor=#FFFFFF;fontStyle=1;fontFamily=Tahoma;fontSize=14" parent="1" vertex="1">
          <mxGeometry x="390" y="830.5" width="230" height="45.5" as="geometry" />
        </mxCell>
        <mxCell id="82P1P7-e6ae5l4yFsAXw-169" value="kouhuku.html" style="rounded=1;fillColor=#23445D;gradientColor=none;strokeColor=none;fontColor=#FFFFFF;fontStyle=1;fontFamily=Tahoma;fontSize=14" parent="1" vertex="1">
          <mxGeometry x="640" y="830.5" width="230" height="45.5" as="geometry" />
        </mxCell>
        <mxCell id="82P1P7-e6ae5l4yFsAXw-170" value="kushiyaki_tsu-tan.html" style="rounded=1;fillColor=#23445D;gradientColor=none;strokeColor=none;fontColor=#FFFFFF;fontStyle=1;fontFamily=Tahoma;fontSize=14" parent="1" vertex="1">
          <mxGeometry x="390" y="890.5" width="230" height="45.5" as="geometry" />
        </mxCell>
        <mxCell id="82P1P7-e6ae5l4yFsAXw-171" value="maruei.html" style="rounded=1;fillColor=#23445D;gradientColor=none;strokeColor=none;fontColor=#FFFFFF;fontStyle=1;fontFamily=Tahoma;fontSize=14" parent="1" vertex="1">
          <mxGeometry x="640" y="890.5" width="230" height="45.5" as="geometry" />
        </mxCell>
        <mxCell id="82P1P7-e6ae5l4yFsAXw-172" value="meido_bar.html" style="rounded=1;fillColor=#23445D;gradientColor=none;strokeColor=none;fontColor=#FFFFFF;fontStyle=1;fontFamily=Tahoma;fontSize=14" parent="1" vertex="1">
          <mxGeometry x="390" y="950.5" width="230" height="45.5" as="geometry" />
        </mxCell>
        <mxCell id="82P1P7-e6ae5l4yFsAXw-173" value="miki.html" style="rounded=1;fillColor=#23445D;gradientColor=none;strokeColor=none;fontColor=#FFFFFF;fontStyle=1;fontFamily=Tahoma;fontSize=14" parent="1" vertex="1">
          <mxGeometry x="640" y="950.5" width="230" height="45.5" as="geometry" />
        </mxCell>
        <mxCell id="82P1P7-e6ae5l4yFsAXw-175" value="move_on.html" style="rounded=1;fillColor=#23445D;gradientColor=none;strokeColor=none;fontColor=#FFFFFF;fontStyle=1;fontFamily=Tahoma;fontSize=14" parent="1" vertex="1">
          <mxGeometry x="390" y="1010.5" width="230" height="45.5" as="geometry" />
        </mxCell>
        <mxCell id="82P1P7-e6ae5l4yFsAXw-176" value="nomidokoro_nagomi.html" style="rounded=1;fillColor=#23445D;gradientColor=none;strokeColor=none;fontColor=#FFFFFF;fontStyle=1;fontFamily=Tahoma;fontSize=14" parent="1" vertex="1">
          <mxGeometry x="640" y="1010.5" width="230" height="45.5" as="geometry" />
        </mxCell>
        <mxCell id="82P1P7-e6ae5l4yFsAXw-177" value="otahuku.html" style="rounded=1;fillColor=#23445D;gradientColor=none;strokeColor=none;fontColor=#FFFFFF;fontStyle=1;fontFamily=Tahoma;fontSize=14" parent="1" vertex="1">
          <mxGeometry x="390" y="1070.5" width="230" height="45.5" as="geometry" />
        </mxCell>
        <mxCell id="82P1P7-e6ae5l4yFsAXw-178" value="pagu_chan.html" style="rounded=1;fillColor=#23445D;gradientColor=none;strokeColor=none;fontColor=#FFFFFF;fontStyle=1;fontFamily=Tahoma;fontSize=14" parent="1" vertex="1">
          <mxGeometry x="640" y="1070.5" width="230" height="45.5" as="geometry" />
        </mxCell>
        <mxCell id="82P1P7-e6ae5l4yFsAXw-179" value="R.html" style="rounded=1;fillColor=#23445D;gradientColor=none;strokeColor=none;fontColor=#FFFFFF;fontStyle=1;fontFamily=Tahoma;fontSize=14" parent="1" vertex="1">
          <mxGeometry x="390" y="1130.5" width="230" height="45.5" as="geometry" />
        </mxCell>
        <mxCell id="82P1P7-e6ae5l4yFsAXw-180" value="sakura_next.html" style="rounded=1;fillColor=#23445D;gradientColor=none;strokeColor=none;fontColor=#FFFFFF;fontStyle=1;fontFamily=Tahoma;fontSize=14" parent="1" vertex="1">
          <mxGeometry x="640" y="1130.5" width="230" height="45.5" as="geometry" />
        </mxCell>
        <mxCell id="82P1P7-e6ae5l4yFsAXw-181" value="sakaba_karon.html" style="rounded=1;fillColor=#23445D;gradientColor=none;strokeColor=none;fontColor=#FFFFFF;fontStyle=1;fontFamily=Tahoma;fontSize=14" parent="1" vertex="1">
          <mxGeometry x="390" y="1190.5" width="230" height="45.5" as="geometry" />
        </mxCell>
        <mxCell id="82P1P7-e6ae5l4yFsAXw-182" value="senior_club.html" style="rounded=1;fillColor=#23445D;gradientColor=none;strokeColor=none;fontColor=#FFFFFF;fontStyle=1;fontFamily=Tahoma;fontSize=14" parent="1" vertex="1">
          <mxGeometry x="640" y="1190.5" width="230" height="45.5" as="geometry" />
        </mxCell>
        <mxCell id="82P1P7-e6ae5l4yFsAXw-183" value="shiragiku.html" style="rounded=1;fillColor=#23445D;gradientColor=none;strokeColor=none;fontColor=#FFFFFF;fontStyle=1;fontFamily=Tahoma;fontSize=14" parent="1" vertex="1">
          <mxGeometry x="390" y="1250.5" width="230" height="45.5" as="geometry" />
        </mxCell>
        <mxCell id="82P1P7-e6ae5l4yFsAXw-184" value="shuen_yururi.html" style="rounded=1;fillColor=#23445D;gradientColor=none;strokeColor=none;fontColor=#FFFFFF;fontStyle=1;fontFamily=Tahoma;fontSize=14" parent="1" vertex="1">
          <mxGeometry x="640" y="1250.5" width="230" height="45.5" as="geometry" />
        </mxCell>
        <mxCell id="82P1P7-e6ae5l4yFsAXw-185" value="snack_ai.html" style="rounded=1;fillColor=#23445D;gradientColor=none;strokeColor=none;fontColor=#FFFFFF;fontStyle=1;fontFamily=Tahoma;fontSize=14" parent="1" vertex="1">
          <mxGeometry x="390" y="1310.5" width="230" height="45.5" as="geometry" />
        </mxCell>
        <mxCell id="82P1P7-e6ae5l4yFsAXw-186" value="snack_saki.html" style="rounded=1;fillColor=#23445D;gradientColor=none;strokeColor=none;fontColor=#FFFFFF;fontStyle=1;fontFamily=Tahoma;fontSize=14" parent="1" vertex="1">
          <mxGeometry x="640" y="1310.5" width="230" height="45.5" as="geometry" />
        </mxCell>
        <mxCell id="82P1P7-e6ae5l4yFsAXw-187" value="soba_sankaku.html" style="rounded=1;fillColor=#23445D;gradientColor=none;strokeColor=none;fontColor=#FFFFFF;fontStyle=1;fontFamily=Tahoma;fontSize=14" parent="1" vertex="1">
          <mxGeometry x="390" y="1370.5" width="230" height="45.5" as="geometry" />
        </mxCell>
        <mxCell id="82P1P7-e6ae5l4yFsAXw-188" value="soyogi_an.html" style="rounded=1;fillColor=#23445D;gradientColor=none;strokeColor=none;fontColor=#FFFFFF;fontStyle=1;fontFamily=Tahoma;fontSize=14" parent="1" vertex="1">
          <mxGeometry x="640" y="1370.5" width="230" height="45.5" as="geometry" />
        </mxCell>
        <mxCell id="82P1P7-e6ae5l4yFsAXw-189" value="stand_toyo.html" style="rounded=1;fillColor=#23445D;gradientColor=none;strokeColor=none;fontColor=#FFFFFF;fontStyle=1;fontFamily=Tahoma;fontSize=14" parent="1" vertex="1">
          <mxGeometry x="390" y="1430.5" width="230" height="45.5" as="geometry" />
        </mxCell>
        <mxCell id="82P1P7-e6ae5l4yFsAXw-190" value="stand-sakaba_maharo.html" style="rounded=1;fillColor=#23445D;gradientColor=none;strokeColor=none;fontColor=#FFFFFF;fontStyle=1;fontFamily=Tahoma;fontSize=14" parent="1" vertex="1">
          <mxGeometry x="640" y="1430.5" width="230" height="45.5" as="geometry" />
        </mxCell>
        <mxCell id="82P1P7-e6ae5l4yFsAXw-191" value="terimi.html" style="rounded=1;fillColor=#23445D;gradientColor=none;strokeColor=none;fontColor=#FFFFFF;fontStyle=1;fontFamily=Tahoma;fontSize=14" parent="1" vertex="1">
          <mxGeometry x="390" y="1491" width="230" height="45.5" as="geometry" />
        </mxCell>
        <mxCell id="82P1P7-e6ae5l4yFsAXw-192" value="tetsukabuto.html" style="rounded=1;fillColor=#23445D;gradientColor=none;strokeColor=none;fontColor=#FFFFFF;fontStyle=1;fontFamily=Tahoma;fontSize=14" parent="1" vertex="1">
          <mxGeometry x="640" y="1491" width="230" height="45.5" as="geometry" />
        </mxCell>
        <mxCell id="82P1P7-e6ae5l4yFsAXw-194" value="the_zoo.html" style="rounded=1;fillColor=#23445D;gradientColor=none;strokeColor=none;fontColor=#FFFFFF;fontStyle=1;fontFamily=Tahoma;fontSize=14" parent="1" vertex="1">
          <mxGeometry x="390" y="1550.5" width="230" height="45.5" as="geometry" />
        </mxCell>
        <mxCell id="82P1P7-e6ae5l4yFsAXw-195" value="tousen.html" style="rounded=1;fillColor=#23445D;gradientColor=none;strokeColor=none;fontColor=#FFFFFF;fontStyle=1;fontFamily=Tahoma;fontSize=14" parent="1" vertex="1">
          <mxGeometry x="640" y="1550.5" width="230" height="45.5" as="geometry" />
        </mxCell>
        <mxCell id="82P1P7-e6ae5l4yFsAXw-196" value="utanoya.html" style="rounded=1;fillColor=#23445D;gradientColor=none;strokeColor=none;fontColor=#FFFFFF;fontStyle=1;fontFamily=Tahoma;fontSize=14" parent="1" vertex="1">
          <mxGeometry x="390" y="1610.5" width="230" height="45.5" as="geometry" />
        </mxCell>
        <mxCell id="82P1P7-e6ae5l4yFsAXw-197" value="wataru.html" style="rounded=1;fillColor=#23445D;gradientColor=none;strokeColor=none;fontColor=#FFFFFF;fontStyle=1;fontFamily=Tahoma;fontSize=14" parent="1" vertex="1">
          <mxGeometry x="640" y="1610.5" width="230" height="45.5" as="geometry" />
        </mxCell>
        <mxCell id="82P1P7-e6ae5l4yFsAXw-198" value="yagi-chan.html" style="rounded=1;fillColor=#23445D;gradientColor=none;strokeColor=none;fontColor=#FFFFFF;fontStyle=1;fontFamily=Tahoma;fontSize=14" parent="1" vertex="1">
          <mxGeometry x="390" y="1670.5" width="230" height="45.5" as="geometry" />
        </mxCell>
        <mxCell id="82P1P7-e6ae5l4yFsAXw-199" value="zen.html" style="rounded=1;fillColor=#23445D;gradientColor=none;strokeColor=none;fontColor=#FFFFFF;fontStyle=1;fontFamily=Tahoma;fontSize=14" parent="1" vertex="1">
          <mxGeometry x="640" y="1670.5" width="230" height="45.5" as="geometry" />
        </mxCell>
        <mxCell id="DHhSm0oX6yLHgPmUd7Qw-198" value="" style="edgeStyle=elbowEdgeStyle;elbow=horizontal;endArrow=classic;html=1;curved=0;rounded=0;endSize=8;startSize=8;exitX=0;exitY=0.5;exitDx=0;exitDy=0;strokeWidth=2;entryX=0;entryY=0.5;entryDx=0;entryDy=0;" parent="1" source="82P1P7-e6ae5l4yFsAXw-126" target="82P1P7-e6ae5l4yFsAXw-128" edge="1">
          <mxGeometry width="50" height="50" relative="1" as="geometry">
            <mxPoint x="117" y="1048.25" as="sourcePoint" />
            <mxPoint x="343" y="658.25" as="targetPoint" />
            <Array as="points">
              <mxPoint x="160" y="790" />
            </Array>
          </mxGeometry>
        </mxCell>
        <mxCell id="DHhSm0oX6yLHgPmUd7Qw-199" value="" style="edgeStyle=elbowEdgeStyle;elbow=horizontal;endArrow=classic;html=1;curved=0;rounded=0;endSize=8;startSize=8;exitX=0;exitY=0.5;exitDx=0;exitDy=0;strokeWidth=2;entryX=0;entryY=0.5;entryDx=0;entryDy=0;" parent="1" source="82P1P7-e6ae5l4yFsAXw-126" target="82P1P7-e6ae5l4yFsAXw-130" edge="1">
          <mxGeometry width="50" height="50" relative="1" as="geometry">
            <mxPoint x="197" y="743" as="sourcePoint" />
            <mxPoint x="197" y="863" as="targetPoint" />
            <Array as="points">
              <mxPoint x="160" y="850" />
            </Array>
          </mxGeometry>
        </mxCell>
        <mxCell id="DHhSm0oX6yLHgPmUd7Qw-200" value="" style="edgeStyle=elbowEdgeStyle;elbow=horizontal;endArrow=classic;html=1;curved=0;rounded=0;endSize=8;startSize=8;exitX=0;exitY=0.5;exitDx=0;exitDy=0;strokeWidth=2;entryX=0;entryY=0.5;entryDx=0;entryDy=0;" parent="1" source="82P1P7-e6ae5l4yFsAXw-126" target="82P1P7-e6ae5l4yFsAXw-124" edge="1">
          <mxGeometry width="50" height="50" relative="1" as="geometry">
            <mxPoint x="207" y="753" as="sourcePoint" />
            <mxPoint x="207" y="873" as="targetPoint" />
            <Array as="points">
              <mxPoint x="160" y="670" />
            </Array>
          </mxGeometry>
        </mxCell>
        <mxCell id="DHhSm0oX6yLHgPmUd7Qw-201" value="" style="edgeStyle=elbowEdgeStyle;elbow=horizontal;endArrow=classic;html=1;curved=0;rounded=0;endSize=8;startSize=8;exitX=1;exitY=0.5;exitDx=0;exitDy=0;strokeWidth=2;entryX=1;entryY=0.5;entryDx=0;entryDy=0;startArrow=none;startFill=0;endFill=1;" parent="1" source="10" target="82P1P7-e6ae5l4yFsAXw-126" edge="1">
          <mxGeometry width="50" height="50" relative="1" as="geometry">
            <mxPoint x="566" y="343" as="sourcePoint" />
            <mxPoint x="340" y="733" as="targetPoint" />
            <Array as="points">
              <mxPoint x="360" y="530" />
            </Array>
          </mxGeometry>
        </mxCell>
        <mxCell id="DHhSm0oX6yLHgPmUd7Qw-202" value="" style="fillColor=#FF8000;strokeColor=none;opacity=30;" parent="1" vertex="1">
          <mxGeometry x="920" y="400" width="179" height="243" as="geometry" />
        </mxCell>
        <mxCell id="DHhSm0oX6yLHgPmUd7Qw-203" value="css" style="rounded=1;fillColor=#23445D;gradientColor=none;strokeColor=none;fontColor=#FFFFFF;fontStyle=1;fontFamily=Tahoma;fontSize=14" parent="1" vertex="1">
          <mxGeometry x="938" y="310" width="143" height="45.5" as="geometry" />
        </mxCell>
        <mxCell id="DHhSm0oX6yLHgPmUd7Qw-204" value="about.css" style="rounded=1;fillColor=#23445D;gradientColor=none;strokeColor=none;fontColor=#FFFFFF;fontStyle=1;fontFamily=Tahoma;fontSize=14" parent="1" vertex="1">
          <mxGeometry x="930" y="410.5" width="159" height="45.5" as="geometry" />
        </mxCell>
        <mxCell id="DHhSm0oX6yLHgPmUd7Qw-205" value="admin_console.css" style="rounded=1;fillColor=#23445D;gradientColor=none;strokeColor=none;fontColor=#FFFFFF;fontStyle=1;fontFamily=Tahoma;fontSize=14" parent="1" vertex="1">
          <mxGeometry x="930" y="470.5" width="159" height="45.5" as="geometry" />
        </mxCell>
        <mxCell id="DHhSm0oX6yLHgPmUd7Qw-206" value="common.css" style="rounded=1;fillColor=#23445D;gradientColor=none;strokeColor=none;fontColor=#FFFFFF;fontStyle=1;fontFamily=Tahoma;fontSize=14" parent="1" vertex="1">
          <mxGeometry x="930" y="530.5" width="159" height="45.5" as="geometry" />
        </mxCell>
        <mxCell id="DHhSm0oX6yLHgPmUd7Qw-207" value="" style="edgeStyle=elbowEdgeStyle;elbow=vertical;strokeWidth=2;rounded=0;entryX=0.5;entryY=0;entryDx=0;entryDy=0;" parent="1" source="DHhSm0oX6yLHgPmUd7Qw-203" target="DHhSm0oX6yLHgPmUd7Qw-202" edge="1">
          <mxGeometry x="-23" y="135.5" width="100" height="100" as="geometry">
            <mxPoint x="-70" y="172.75" as="sourcePoint" />
            <mxPoint x="1003" y="364.25" as="targetPoint" />
          </mxGeometry>
        </mxCell>
        <mxCell id="DHhSm0oX6yLHgPmUd7Qw-208" value="index.css" style="rounded=1;fillColor=#23445D;gradientColor=none;strokeColor=none;fontColor=#FFFFFF;fontStyle=1;fontFamily=Tahoma;fontSize=14" parent="1" vertex="1">
          <mxGeometry x="930" y="590.5" width="159" height="45.5" as="geometry" />
        </mxCell>
        <mxCell id="DHhSm0oX6yLHgPmUd7Qw-209" value="release_note.css" style="rounded=1;fillColor=#23445D;gradientColor=none;strokeColor=none;fontColor=#FFFFFF;fontStyle=1;fontFamily=Tahoma;fontSize=14" parent="1" vertex="1">
          <mxGeometry x="930" y="650.5" width="159" height="45.5" as="geometry" />
        </mxCell>
        <mxCell id="DHhSm0oX6yLHgPmUd7Qw-210" value="reset.css" style="rounded=1;fillColor=#23445D;gradientColor=none;strokeColor=none;fontColor=#FFFFFF;fontStyle=1;fontFamily=Tahoma;fontSize=14" parent="1" vertex="1">
          <mxGeometry x="930" y="710.5" width="159" height="45.5" as="geometry" />
        </mxCell>
        <mxCell id="DHhSm0oX6yLHgPmUd7Qw-211" value="site-map.css" style="rounded=1;fillColor=#23445D;gradientColor=none;strokeColor=none;fontColor=#FFFFFF;fontStyle=1;fontFamily=Tahoma;fontSize=14" parent="1" vertex="1">
          <mxGeometry x="930" y="770.5" width="159" height="45.5" as="geometry" />
        </mxCell>
        <mxCell id="DHhSm0oX6yLHgPmUd7Qw-212" value="summary.css" style="rounded=1;fillColor=#23445D;gradientColor=none;strokeColor=none;fontColor=#FFFFFF;fontStyle=1;fontFamily=Tahoma;fontSize=14" parent="1" vertex="1">
          <mxGeometry x="930" y="830.5" width="159" height="45.5" as="geometry" />
        </mxCell>
        <mxCell id="DHhSm0oX6yLHgPmUd7Qw-220" value="" style="edgeStyle=elbowEdgeStyle;elbow=vertical;strokeWidth=2;rounded=0;entryX=0.5;entryY=0;entryDx=0;entryDy=0;exitX=0.5;exitY=1;exitDx=0;exitDy=0;" parent="1" source="2" target="DHhSm0oX6yLHgPmUd7Qw-203" edge="1">
          <mxGeometry x="-23" y="135.5" width="100" height="100" as="geometry">
            <mxPoint x="942" y="215.5" as="sourcePoint" />
            <mxPoint x="302" y="320" as="targetPoint" />
            <Array as="points">
              <mxPoint x="1020" y="270" />
            </Array>
          </mxGeometry>
        </mxCell>
        <mxCell id="DHhSm0oX6yLHgPmUd7Qw-230" value="" style="fillColor=#FF8000;strokeColor=none;opacity=30;" parent="1" vertex="1">
          <mxGeometry x="1140" y="400" width="500" height="1385" as="geometry" />
        </mxCell>
        <mxCell id="DHhSm0oX6yLHgPmUd7Qw-231" value="img" style="rounded=1;fillColor=#23445D;gradientColor=none;strokeColor=none;fontColor=#FFFFFF;fontStyle=1;fontFamily=Tahoma;fontSize=14" parent="1" vertex="1">
          <mxGeometry x="1318.5" y="310" width="143" height="45.5" as="geometry" />
        </mxCell>
        <mxCell id="DHhSm0oX6yLHgPmUd7Qw-232" value="" style="edgeStyle=elbowEdgeStyle;elbow=vertical;strokeWidth=2;rounded=0;entryX=0.5;entryY=0;entryDx=0;entryDy=0;" parent="1" source="DHhSm0oX6yLHgPmUd7Qw-231" target="DHhSm0oX6yLHgPmUd7Qw-230" edge="1">
          <mxGeometry x="-23" y="135.5" width="100" height="100" as="geometry">
            <mxPoint x="150" y="172.75" as="sourcePoint" />
            <mxPoint x="1222" y="367.25" as="targetPoint" />
          </mxGeometry>
        </mxCell>
        <mxCell id="DHhSm0oX6yLHgPmUd7Qw-233" value="404.webp" style="rounded=1;fillColor=#23445D;gradientColor=none;strokeColor=none;fontColor=#FFFFFF;fontStyle=1;fontFamily=Tahoma;fontSize=14" parent="1" vertex="1">
          <mxGeometry x="1150" y="410.5" width="230" height="45.5" as="geometry" />
        </mxCell>
        <mxCell id="DHhSm0oX6yLHgPmUd7Qw-234" value="akihisa.webp" style="rounded=1;fillColor=#23445D;gradientColor=none;strokeColor=none;fontColor=#FFFFFF;fontStyle=1;fontFamily=Tahoma;fontSize=14" parent="1" vertex="1">
          <mxGeometry x="1400" y="410.5" width="230" height="45.5" as="geometry" />
        </mxCell>
        <mxCell id="DHhSm0oX6yLHgPmUd7Qw-235" value="anteena.webp" style="rounded=1;fillColor=#23445D;gradientColor=none;strokeColor=none;fontColor=#FFFFFF;fontStyle=1;fontFamily=Tahoma;fontSize=14" parent="1" vertex="1">
          <mxGeometry x="1150" y="470.5" width="230" height="45.5" as="geometry" />
        </mxCell>
        <mxCell id="DHhSm0oX6yLHgPmUd7Qw-236" value="asobi-bar_aira.webp" style="rounded=1;fillColor=#23445D;gradientColor=none;strokeColor=none;fontColor=#FFFFFF;fontStyle=1;fontFamily=Tahoma;fontSize=14" parent="1" vertex="1">
          <mxGeometry x="1400" y="470.5" width="230" height="45.5" as="geometry" />
        </mxCell>
        <mxCell id="DHhSm0oX6yLHgPmUd7Qw-237" value="bar_hanare.webp" style="rounded=1;fillColor=#23445D;gradientColor=none;strokeColor=none;fontColor=#FFFFFF;fontStyle=1;fontFamily=Tahoma;fontSize=14" parent="1" vertex="1">
          <mxGeometry x="1150" y="530.5" width="230" height="45.5" as="geometry" />
        </mxCell>
        <mxCell id="DHhSm0oX6yLHgPmUd7Qw-238" value="bar_masquerade.webp" style="rounded=1;fillColor=#23445D;gradientColor=none;strokeColor=none;fontColor=#FFFFFF;fontStyle=1;fontFamily=Tahoma;fontSize=14" parent="1" vertex="1">
          <mxGeometry x="1400" y="530.5" width="230" height="45.5" as="geometry" />
        </mxCell>
        <mxCell id="DHhSm0oX6yLHgPmUd7Qw-239" value="fermata.webp" style="rounded=1;fillColor=#23445D;gradientColor=none;strokeColor=none;fontColor=#FFFFFF;fontStyle=1;fontFamily=Tahoma;fontSize=14" parent="1" vertex="1">
          <mxGeometry x="1150" y="590.5" width="230" height="45.5" as="geometry" />
        </mxCell>
        <mxCell id="DHhSm0oX6yLHgPmUd7Qw-240" value="goemon.webp" style="rounded=1;fillColor=#23445D;gradientColor=none;strokeColor=none;fontColor=#FFFFFF;fontStyle=1;fontFamily=Tahoma;fontSize=14" parent="1" vertex="1">
          <mxGeometry x="1400" y="590.5" width="230" height="45.5" as="geometry" />
        </mxCell>
        <mxCell id="DHhSm0oX6yLHgPmUd7Qw-241" value="gyouza_sankaku.webp" style="rounded=1;fillColor=#23445D;gradientColor=none;strokeColor=none;fontColor=#FFFFFF;fontStyle=1;fontFamily=Tahoma;fontSize=14" parent="1" vertex="1">
          <mxGeometry x="1150" y="650.5" width="230" height="45.5" as="geometry" />
        </mxCell>
        <mxCell id="DHhSm0oX6yLHgPmUd7Qw-242" value="hokkoriba-ru_hoshiboshi.webp" style="rounded=1;fillColor=#23445D;gradientColor=none;strokeColor=none;fontColor=#FFFFFF;fontStyle=1;fontFamily=Tahoma;fontSize=14" parent="1" vertex="1">
          <mxGeometry x="1400" y="650.5" width="230" height="45.5" as="geometry" />
        </mxCell>
        <mxCell id="DHhSm0oX6yLHgPmUd7Qw-243" value="ichimaru_ramen.webp" style="rounded=1;fillColor=#23445D;gradientColor=none;strokeColor=none;fontColor=#FFFFFF;fontStyle=1;fontFamily=Tahoma;fontSize=14" parent="1" vertex="1">
          <mxGeometry x="1150" y="710.5" width="230" height="45.5" as="geometry" />
        </mxCell>
        <mxCell id="DHhSm0oX6yLHgPmUd7Qw-244" value="karaoke-bar_tsu-yan.webp" style="rounded=1;fillColor=#23445D;gradientColor=none;strokeColor=none;fontColor=#FFFFFF;fontStyle=1;fontFamily=Tahoma;fontSize=14" parent="1" vertex="1">
          <mxGeometry x="1150" y="770.5" width="230" height="45.5" as="geometry" />
        </mxCell>
        <mxCell id="DHhSm0oX6yLHgPmUd7Qw-245" value="kitchen_725.webpwebp" style="rounded=1;fillColor=#23445D;gradientColor=none;strokeColor=none;fontColor=#FFFFFF;fontStyle=1;fontFamily=Tahoma;fontSize=14" parent="1" vertex="1">
          <mxGeometry x="1400" y="770.5" width="230" height="45.5" as="geometry" />
        </mxCell>
        <mxCell id="DHhSm0oX6yLHgPmUd7Qw-246" value="kokure.html" style="rounded=1;fillColor=#23445D;gradientColor=none;strokeColor=none;fontColor=#FFFFFF;fontStyle=1;fontFamily=Tahoma;fontSize=14" parent="1" vertex="1">
          <mxGeometry x="1150" y="830.5" width="230" height="45.5" as="geometry" />
        </mxCell>
        <mxCell id="DHhSm0oX6yLHgPmUd7Qw-247" value="?.webp" style="rounded=1;fillColor=#23445D;gradientColor=none;strokeColor=none;fontColor=#FFFFFF;fontStyle=1;fontFamily=Tahoma;fontSize=14" parent="1" vertex="1">
          <mxGeometry x="1400" y="830.5" width="230" height="45.5" as="geometry" />
        </mxCell>
        <mxCell id="DHhSm0oX6yLHgPmUd7Qw-248" value="kouhuku.webp" style="rounded=1;fillColor=#23445D;gradientColor=none;strokeColor=none;fontColor=#FFFFFF;fontStyle=1;fontFamily=Tahoma;fontSize=14" parent="1" vertex="1">
          <mxGeometry x="1150" y="950.5" width="230" height="45.5" as="geometry" />
        </mxCell>
        <mxCell id="DHhSm0oX6yLHgPmUd7Qw-249" value="kushiyaki_tsu-tan.webp" style="rounded=1;fillColor=#23445D;gradientColor=none;strokeColor=none;fontColor=#FFFFFF;fontStyle=1;fontFamily=Tahoma;fontSize=14" parent="1" vertex="1">
          <mxGeometry x="1150" y="890.5" width="230" height="45.5" as="geometry" />
        </mxCell>
        <mxCell id="DHhSm0oX6yLHgPmUd7Qw-250" value="maruei.webp" style="rounded=1;fillColor=#23445D;gradientColor=none;strokeColor=none;fontColor=#FFFFFF;fontStyle=1;fontFamily=Tahoma;fontSize=14" parent="1" vertex="1">
          <mxGeometry x="1150" y="1010.5" width="230" height="45.5" as="geometry" />
        </mxCell>
        <mxCell id="DHhSm0oX6yLHgPmUd7Qw-251" value="meido_bar.webp" style="rounded=1;fillColor=#23445D;gradientColor=none;strokeColor=none;fontColor=#FFFFFF;fontStyle=1;fontFamily=Tahoma;fontSize=14" parent="1" vertex="1">
          <mxGeometry x="1400" y="950.5" width="230" height="45.5" as="geometry" />
        </mxCell>
        <mxCell id="DHhSm0oX6yLHgPmUd7Qw-252" value="miki.webp" style="rounded=1;fillColor=#23445D;gradientColor=none;strokeColor=none;fontColor=#FFFFFF;fontStyle=1;fontFamily=Tahoma;fontSize=14" parent="1" vertex="1">
          <mxGeometry x="1150" y="1070.5" width="230" height="45.5" as="geometry" />
        </mxCell>
        <mxCell id="DHhSm0oX6yLHgPmUd7Qw-253" value="move_on.webp" style="rounded=1;fillColor=#23445D;gradientColor=none;strokeColor=none;fontColor=#FFFFFF;fontStyle=1;fontFamily=Tahoma;fontSize=14" parent="1" vertex="1">
          <mxGeometry x="1400" y="1010.5" width="230" height="45.5" as="geometry" />
        </mxCell>
        <mxCell id="DHhSm0oX6yLHgPmUd7Qw-254" value="nomidokoro_nagomi.webp" style="rounded=1;fillColor=#23445D;gradientColor=none;strokeColor=none;fontColor=#FFFFFF;fontStyle=1;fontFamily=Tahoma;fontSize=14" parent="1" vertex="1">
          <mxGeometry x="1400" y="1070.5" width="230" height="45.5" as="geometry" />
        </mxCell>
        <mxCell id="DHhSm0oX6yLHgPmUd7Qw-255" value="otahuku.webp" style="rounded=1;fillColor=#23445D;gradientColor=none;strokeColor=none;fontColor=#FFFFFF;fontStyle=1;fontFamily=Tahoma;fontSize=14" parent="1" vertex="1">
          <mxGeometry x="1150" y="1130.5" width="230" height="45.5" as="geometry" />
        </mxCell>
        <mxCell id="DHhSm0oX6yLHgPmUd7Qw-256" value="pagu_chan.webp" style="rounded=1;fillColor=#23445D;gradientColor=none;strokeColor=none;fontColor=#FFFFFF;fontStyle=1;fontFamily=Tahoma;fontSize=14" parent="1" vertex="1">
          <mxGeometry x="1400" y="1130.5" width="230" height="45.5" as="geometry" />
        </mxCell>
        <mxCell id="DHhSm0oX6yLHgPmUd7Qw-257" value="R.webp" style="rounded=1;fillColor=#23445D;gradientColor=none;strokeColor=none;fontColor=#FFFFFF;fontStyle=1;fontFamily=Tahoma;fontSize=14" parent="1" vertex="1">
          <mxGeometry x="1150" y="1190.5" width="230" height="45.5" as="geometry" />
        </mxCell>
        <mxCell id="DHhSm0oX6yLHgPmUd7Qw-258" value="sakura_next.webp" style="rounded=1;fillColor=#23445D;gradientColor=none;strokeColor=none;fontColor=#FFFFFF;fontStyle=1;fontFamily=Tahoma;fontSize=14" parent="1" vertex="1">
          <mxGeometry x="1400" y="1190.5" width="230" height="45.5" as="geometry" />
        </mxCell>
        <mxCell id="DHhSm0oX6yLHgPmUd7Qw-259" value="sakaba_karon.webp" style="rounded=1;fillColor=#23445D;gradientColor=none;strokeColor=none;fontColor=#FFFFFF;fontStyle=1;fontFamily=Tahoma;fontSize=14" parent="1" vertex="1">
          <mxGeometry x="1150" y="1250.5" width="230" height="45.5" as="geometry" />
        </mxCell>
        <mxCell id="DHhSm0oX6yLHgPmUd7Qw-260" value="senior_club.webp" style="rounded=1;fillColor=#23445D;gradientColor=none;strokeColor=none;fontColor=#FFFFFF;fontStyle=1;fontFamily=Tahoma;fontSize=14" parent="1" vertex="1">
          <mxGeometry x="1400" y="1250.5" width="230" height="45.5" as="geometry" />
        </mxCell>
        <mxCell id="DHhSm0oX6yLHgPmUd7Qw-261" value="shiragiku.webp" style="rounded=1;fillColor=#23445D;gradientColor=none;strokeColor=none;fontColor=#FFFFFF;fontStyle=1;fontFamily=Tahoma;fontSize=14" parent="1" vertex="1">
          <mxGeometry x="1150" y="1310.5" width="230" height="45.5" as="geometry" />
        </mxCell>
        <mxCell id="DHhSm0oX6yLHgPmUd7Qw-262" value="shuen_yururi.webp" style="rounded=1;fillColor=#23445D;gradientColor=none;strokeColor=none;fontColor=#FFFFFF;fontStyle=1;fontFamily=Tahoma;fontSize=14" parent="1" vertex="1">
          <mxGeometry x="1400" y="1310.5" width="230" height="45.5" as="geometry" />
        </mxCell>
        <mxCell id="DHhSm0oX6yLHgPmUd7Qw-263" value="snack_ai.webp" style="rounded=1;fillColor=#23445D;gradientColor=none;strokeColor=none;fontColor=#FFFFFF;fontStyle=1;fontFamily=Tahoma;fontSize=14" parent="1" vertex="1">
          <mxGeometry x="1150" y="1370.5" width="230" height="45.5" as="geometry" />
        </mxCell>
        <mxCell id="DHhSm0oX6yLHgPmUd7Qw-264" value="snack_saki.webp" style="rounded=1;fillColor=#23445D;gradientColor=none;strokeColor=none;fontColor=#FFFFFF;fontStyle=1;fontFamily=Tahoma;fontSize=14" parent="1" vertex="1">
          <mxGeometry x="1400" y="1370.5" width="230" height="45.5" as="geometry" />
        </mxCell>
        <mxCell id="DHhSm0oX6yLHgPmUd7Qw-267" value="soba_sankaku.webp" style="rounded=1;fillColor=#23445D;gradientColor=none;strokeColor=none;fontColor=#FFFFFF;fontStyle=1;fontFamily=Tahoma;fontSize=14" parent="1" vertex="1">
          <mxGeometry x="1150" y="1430.5" width="230" height="45.5" as="geometry" />
        </mxCell>
        <mxCell id="DHhSm0oX6yLHgPmUd7Qw-268" value="soyogi_an.webp" style="rounded=1;fillColor=#23445D;gradientColor=none;strokeColor=none;fontColor=#FFFFFF;fontStyle=1;fontFamily=Tahoma;fontSize=14" parent="1" vertex="1">
          <mxGeometry x="1400" y="1430.5" width="230" height="45.5" as="geometry" />
        </mxCell>
        <mxCell id="DHhSm0oX6yLHgPmUd7Qw-269" value="stand_toyo.webp" style="rounded=1;fillColor=#23445D;gradientColor=none;strokeColor=none;fontColor=#FFFFFF;fontStyle=1;fontFamily=Tahoma;fontSize=14" parent="1" vertex="1">
          <mxGeometry x="1150" y="1491" width="230" height="45.5" as="geometry" />
        </mxCell>
        <mxCell id="DHhSm0oX6yLHgPmUd7Qw-270" value="stand-sakaba_maharo.webp" style="rounded=1;fillColor=#23445D;gradientColor=none;strokeColor=none;fontColor=#FFFFFF;fontStyle=1;fontFamily=Tahoma;fontSize=14" parent="1" vertex="1">
          <mxGeometry x="1400" y="1491" width="230" height="45.5" as="geometry" />
        </mxCell>
        <mxCell id="DHhSm0oX6yLHgPmUd7Qw-271" value="terimi.webp" style="rounded=1;fillColor=#23445D;gradientColor=none;strokeColor=none;fontColor=#FFFFFF;fontStyle=1;fontFamily=Tahoma;fontSize=14" parent="1" vertex="1">
          <mxGeometry x="1150" y="1550.5" width="230" height="45.5" as="geometry" />
        </mxCell>
        <mxCell id="DHhSm0oX6yLHgPmUd7Qw-272" value="tetsukabuto.webp" style="rounded=1;fillColor=#23445D;gradientColor=none;strokeColor=none;fontColor=#FFFFFF;fontStyle=1;fontFamily=Tahoma;fontSize=14" parent="1" vertex="1">
          <mxGeometry x="1400" y="1550.5" width="230" height="45.5" as="geometry" />
        </mxCell>
        <mxCell id="DHhSm0oX6yLHgPmUd7Qw-273" value="the_zoo.webp" style="rounded=1;fillColor=#23445D;gradientColor=none;strokeColor=none;fontColor=#FFFFFF;fontStyle=1;fontFamily=Tahoma;fontSize=14" parent="1" vertex="1">
          <mxGeometry x="1150" y="1610.5" width="230" height="45.5" as="geometry" />
        </mxCell>
        <mxCell id="DHhSm0oX6yLHgPmUd7Qw-274" value="tousen.webp" style="rounded=1;fillColor=#23445D;gradientColor=none;strokeColor=none;fontColor=#FFFFFF;fontStyle=1;fontFamily=Tahoma;fontSize=14" parent="1" vertex="1">
          <mxGeometry x="1400" y="1610.5" width="230" height="45.5" as="geometry" />
        </mxCell>
        <mxCell id="DHhSm0oX6yLHgPmUd7Qw-275" value="utanoya.webp" style="rounded=1;fillColor=#23445D;gradientColor=none;strokeColor=none;fontColor=#FFFFFF;fontStyle=1;fontFamily=Tahoma;fontSize=14" parent="1" vertex="1">
          <mxGeometry x="1150" y="1670.5" width="230" height="45.5" as="geometry" />
        </mxCell>
        <mxCell id="DHhSm0oX6yLHgPmUd7Qw-276" value="wataru.webp" style="rounded=1;fillColor=#23445D;gradientColor=none;strokeColor=none;fontColor=#FFFFFF;fontStyle=1;fontFamily=Tahoma;fontSize=14" parent="1" vertex="1">
          <mxGeometry x="1400" y="1670.5" width="230" height="45.5" as="geometry" />
        </mxCell>
        <mxCell id="yD7QGmuIfpxSSi4D3mGt-123" value="yagi-chan.webp" style="rounded=1;fillColor=#23445D;gradientColor=none;strokeColor=none;fontColor=#FFFFFF;fontStyle=1;fontFamily=Tahoma;fontSize=14" parent="1" vertex="1">
          <mxGeometry x="1150" y="1730.5" width="230" height="45.5" as="geometry" />
        </mxCell>
        <mxCell id="yD7QGmuIfpxSSi4D3mGt-124" value="zen.webp" style="rounded=1;fillColor=#23445D;gradientColor=none;strokeColor=none;fontColor=#FFFFFF;fontStyle=1;fontFamily=Tahoma;fontSize=14" parent="1" vertex="1">
          <mxGeometry x="1400" y="1730.5" width="230" height="45.5" as="geometry" />
        </mxCell>
        <mxCell id="yD7QGmuIfpxSSi4D3mGt-125" value="jigokudani.webp" style="rounded=1;fillColor=#23445D;gradientColor=none;strokeColor=none;fontColor=#FFFFFF;fontStyle=1;fontFamily=Tahoma;fontSize=14" parent="1" vertex="1">
          <mxGeometry x="1400" y="710.5" width="230" height="45.5" as="geometry" />
        </mxCell>
        <mxCell id="yD7QGmuIfpxSSi4D3mGt-126" value="map.webp" style="rounded=1;fillColor=#23445D;gradientColor=none;strokeColor=none;fontColor=#FFFFFF;fontStyle=1;fontFamily=Tahoma;fontSize=14" parent="1" vertex="1">
          <mxGeometry x="1400" y="890.5" width="230" height="45.5" as="geometry" />
        </mxCell>
        <mxCell id="yD7QGmuIfpxSSi4D3mGt-127" style="edgeStyle=orthogonalEdgeStyle;rounded=0;orthogonalLoop=1;jettySize=auto;html=1;exitX=0.5;exitY=1;exitDx=0;exitDy=0;" parent="1" edge="1">
          <mxGeometry relative="1" as="geometry">
            <mxPoint x="1390" y="1785" as="sourcePoint" />
            <mxPoint x="1390" y="1785" as="targetPoint" />
          </mxGeometry>
        </mxCell>
        <mxCell id="yD7QGmuIfpxSSi4D3mGt-128" value="" style="edgeStyle=elbowEdgeStyle;elbow=vertical;strokeWidth=2;rounded=0;entryX=0.5;entryY=0;entryDx=0;entryDy=0;exitX=0.5;exitY=1;exitDx=0;exitDy=0;" parent="1" source="2" target="DHhSm0oX6yLHgPmUd7Qw-231" edge="1">
          <mxGeometry x="-23" y="135.5" width="100" height="100" as="geometry">
            <mxPoint x="942" y="215.5" as="sourcePoint" />
            <mxPoint x="1020" y="320" as="targetPoint" />
            <Array as="points">
              <mxPoint x="1450" y="270" />
            </Array>
          </mxGeometry>
        </mxCell>
        <mxCell id="yD7QGmuIfpxSSi4D3mGt-129" value="" style="fillColor=#FF8000;strokeColor=none;opacity=30;" parent="1" vertex="1">
          <mxGeometry x="1680" y="399.04999999999995" width="500" height="1325.95" as="geometry" />
        </mxCell>
        <mxCell id="yD7QGmuIfpxSSi4D3mGt-130" value="img2" style="rounded=1;fillColor=#23445D;gradientColor=none;strokeColor=none;fontColor=#FFFFFF;fontStyle=1;fontFamily=Tahoma;fontSize=14" parent="1" vertex="1">
          <mxGeometry x="1858.5" y="309.04999999999995" width="143" height="45.5" as="geometry" />
        </mxCell>
        <mxCell id="yD7QGmuIfpxSSi4D3mGt-131" value="" style="edgeStyle=elbowEdgeStyle;elbow=vertical;strokeWidth=2;rounded=0;entryX=0.5;entryY=0;entryDx=0;entryDy=0;" parent="1" source="yD7QGmuIfpxSSi4D3mGt-130" target="yD7QGmuIfpxSSi4D3mGt-129" edge="1">
          <mxGeometry x="-23" y="135.5" width="100" height="100" as="geometry">
            <mxPoint x="690" y="171.79999999999995" as="sourcePoint" />
            <mxPoint x="1762" y="366.29999999999995" as="targetPoint" />
            <Array as="points">
              <mxPoint x="1930" y="380" />
            </Array>
          </mxGeometry>
        </mxCell>
        <mxCell id="yD7QGmuIfpxSSi4D3mGt-133" value="akihisa.webp" style="rounded=1;fillColor=#23445D;gradientColor=none;strokeColor=none;fontColor=#FFFFFF;fontStyle=1;fontFamily=Tahoma;fontSize=14" parent="1" vertex="1">
          <mxGeometry x="1690" y="410.5" width="230" height="45.5" as="geometry" />
        </mxCell>
        <mxCell id="yD7QGmuIfpxSSi4D3mGt-134" value="anteena.webp" style="rounded=1;fillColor=#23445D;gradientColor=none;strokeColor=none;fontColor=#FFFFFF;fontStyle=1;fontFamily=Tahoma;fontSize=14" parent="1" vertex="1">
          <mxGeometry x="1940" y="410.5" width="230" height="45.5" as="geometry" />
        </mxCell>
        <mxCell id="yD7QGmuIfpxSSi4D3mGt-135" value="asobi-bar_aira.webp" style="rounded=1;fillColor=#23445D;gradientColor=none;strokeColor=none;fontColor=#FFFFFF;fontStyle=1;fontFamily=Tahoma;fontSize=14" parent="1" vertex="1">
          <mxGeometry x="1690" y="470.5" width="230" height="45.5" as="geometry" />
        </mxCell>
        <mxCell id="yD7QGmuIfpxSSi4D3mGt-136" value="bar_hanare.webp" style="rounded=1;fillColor=#23445D;gradientColor=none;strokeColor=none;fontColor=#FFFFFF;fontStyle=1;fontFamily=Tahoma;fontSize=14" parent="1" vertex="1">
          <mxGeometry x="1940" y="470.5" width="230" height="45.5" as="geometry" />
        </mxCell>
        <mxCell id="yD7QGmuIfpxSSi4D3mGt-137" value="bar_masquerade.webp" style="rounded=1;fillColor=#23445D;gradientColor=none;strokeColor=none;fontColor=#FFFFFF;fontStyle=1;fontFamily=Tahoma;fontSize=14" parent="1" vertex="1">
          <mxGeometry x="1690" y="530.5" width="230" height="45.5" as="geometry" />
        </mxCell>
        <mxCell id="yD7QGmuIfpxSSi4D3mGt-138" value="fermata.webp" style="rounded=1;fillColor=#23445D;gradientColor=none;strokeColor=none;fontColor=#FFFFFF;fontStyle=1;fontFamily=Tahoma;fontSize=14" parent="1" vertex="1">
          <mxGeometry x="1940" y="530.5" width="230" height="45.5" as="geometry" />
        </mxCell>
        <mxCell id="yD7QGmuIfpxSSi4D3mGt-139" value="goemon.webp" style="rounded=1;fillColor=#23445D;gradientColor=none;strokeColor=none;fontColor=#FFFFFF;fontStyle=1;fontFamily=Tahoma;fontSize=14" parent="1" vertex="1">
          <mxGeometry x="1690" y="590.5" width="230" height="45.5" as="geometry" />
        </mxCell>
        <mxCell id="yD7QGmuIfpxSSi4D3mGt-140" value="gyouza_sankaku.webp" style="rounded=1;fillColor=#23445D;gradientColor=none;strokeColor=none;fontColor=#FFFFFF;fontStyle=1;fontFamily=Tahoma;fontSize=14" parent="1" vertex="1">
          <mxGeometry x="1940" y="590.5" width="230" height="45.5" as="geometry" />
        </mxCell>
        <mxCell id="yD7QGmuIfpxSSi4D3mGt-141" value="hokkoriba-ru_hoshiboshi.webp" style="rounded=1;fillColor=#23445D;gradientColor=none;strokeColor=none;fontColor=#FFFFFF;fontStyle=1;fontFamily=Tahoma;fontSize=14" parent="1" vertex="1">
          <mxGeometry x="1690" y="650.5" width="230" height="45.5" as="geometry" />
        </mxCell>
        <mxCell id="yD7QGmuIfpxSSi4D3mGt-142" value="ichimaru_ramen.webp" style="rounded=1;fillColor=#23445D;gradientColor=none;strokeColor=none;fontColor=#FFFFFF;fontStyle=1;fontFamily=Tahoma;fontSize=14" parent="1" vertex="1">
          <mxGeometry x="1940" y="650.75" width="230" height="45.5" as="geometry" />
        </mxCell>
        <mxCell id="yD7QGmuIfpxSSi4D3mGt-143" value="karaoke-bar_tsu-yan.webp" style="rounded=1;fillColor=#23445D;gradientColor=none;strokeColor=none;fontColor=#FFFFFF;fontStyle=1;fontFamily=Tahoma;fontSize=14" parent="1" vertex="1">
          <mxGeometry x="1690" y="710.5" width="230" height="45.5" as="geometry" />
        </mxCell>
        <mxCell id="yD7QGmuIfpxSSi4D3mGt-144" value="kitchen_725.webpwebp" style="rounded=1;fillColor=#23445D;gradientColor=none;strokeColor=none;fontColor=#FFFFFF;fontStyle=1;fontFamily=Tahoma;fontSize=14" parent="1" vertex="1">
          <mxGeometry x="1940" y="710.5" width="230" height="45.5" as="geometry" />
        </mxCell>
        <mxCell id="yD7QGmuIfpxSSi4D3mGt-145" value="kokure.html" style="rounded=1;fillColor=#23445D;gradientColor=none;strokeColor=none;fontColor=#FFFFFF;fontStyle=1;fontFamily=Tahoma;fontSize=14" parent="1" vertex="1">
          <mxGeometry x="1690" y="770.5" width="230" height="45.5" as="geometry" />
        </mxCell>
        <mxCell id="yD7QGmuIfpxSSi4D3mGt-146" value="?.webp" style="rounded=1;fillColor=#23445D;gradientColor=none;strokeColor=none;fontColor=#FFFFFF;fontStyle=1;fontFamily=Tahoma;fontSize=14" parent="1" vertex="1">
          <mxGeometry x="1940" y="770.5" width="230" height="45.5" as="geometry" />
        </mxCell>
        <mxCell id="yD7QGmuIfpxSSi4D3mGt-147" value="kouhuku.webp" style="rounded=1;fillColor=#23445D;gradientColor=none;strokeColor=none;fontColor=#FFFFFF;fontStyle=1;fontFamily=Tahoma;fontSize=14" parent="1" vertex="1">
          <mxGeometry x="1690" y="830.5" width="230" height="45.5" as="geometry" />
        </mxCell>
        <mxCell id="yD7QGmuIfpxSSi4D3mGt-148" value="kushiyaki_tsu-tan.webp" style="rounded=1;fillColor=#23445D;gradientColor=none;strokeColor=none;fontColor=#FFFFFF;fontStyle=1;fontFamily=Tahoma;fontSize=14" parent="1" vertex="1">
          <mxGeometry x="1940" y="830.5" width="230" height="45.5" as="geometry" />
        </mxCell>
        <mxCell id="yD7QGmuIfpxSSi4D3mGt-149" value="maruei.webp" style="rounded=1;fillColor=#23445D;gradientColor=none;strokeColor=none;fontColor=#FFFFFF;fontStyle=1;fontFamily=Tahoma;fontSize=14" parent="1" vertex="1">
          <mxGeometry x="1690" y="893.25" width="230" height="45.5" as="geometry" />
        </mxCell>
        <mxCell id="yD7QGmuIfpxSSi4D3mGt-150" value="meido_bar.webp" style="rounded=1;fillColor=#23445D;gradientColor=none;strokeColor=none;fontColor=#FFFFFF;fontStyle=1;fontFamily=Tahoma;fontSize=14" parent="1" vertex="1">
          <mxGeometry x="1940" y="890.5" width="230" height="45.5" as="geometry" />
        </mxCell>
        <mxCell id="yD7QGmuIfpxSSi4D3mGt-151" value="miki.webp" style="rounded=1;fillColor=#23445D;gradientColor=none;strokeColor=none;fontColor=#FFFFFF;fontStyle=1;fontFamily=Tahoma;fontSize=14" parent="1" vertex="1">
          <mxGeometry x="1690" y="950.5" width="230" height="45.5" as="geometry" />
        </mxCell>
        <mxCell id="yD7QGmuIfpxSSi4D3mGt-152" value="move_on.webp" style="rounded=1;fillColor=#23445D;gradientColor=none;strokeColor=none;fontColor=#FFFFFF;fontStyle=1;fontFamily=Tahoma;fontSize=14" parent="1" vertex="1">
          <mxGeometry x="1940" y="950.5" width="230" height="45.5" as="geometry" />
        </mxCell>
        <mxCell id="yD7QGmuIfpxSSi4D3mGt-153" value="nomidokoro_nagomi.webp" style="rounded=1;fillColor=#23445D;gradientColor=none;strokeColor=none;fontColor=#FFFFFF;fontStyle=1;fontFamily=Tahoma;fontSize=14" parent="1" vertex="1">
          <mxGeometry x="1690" y="1010.5" width="230" height="45.5" as="geometry" />
        </mxCell>
        <mxCell id="yD7QGmuIfpxSSi4D3mGt-154" value="otahuku.webp" style="rounded=1;fillColor=#23445D;gradientColor=none;strokeColor=none;fontColor=#FFFFFF;fontStyle=1;fontFamily=Tahoma;fontSize=14" parent="1" vertex="1">
          <mxGeometry x="1940" y="1010.5" width="230" height="45.5" as="geometry" />
        </mxCell>
        <mxCell id="yD7QGmuIfpxSSi4D3mGt-155" value="pagu_chan.webp" style="rounded=1;fillColor=#23445D;gradientColor=none;strokeColor=none;fontColor=#FFFFFF;fontStyle=1;fontFamily=Tahoma;fontSize=14" parent="1" vertex="1">
          <mxGeometry x="1690" y="1070.5" width="230" height="45.5" as="geometry" />
        </mxCell>
        <mxCell id="yD7QGmuIfpxSSi4D3mGt-156" value="R.webp" style="rounded=1;fillColor=#23445D;gradientColor=none;strokeColor=none;fontColor=#FFFFFF;fontStyle=1;fontFamily=Tahoma;fontSize=14" parent="1" vertex="1">
          <mxGeometry x="1940" y="1070.5000000000002" width="230" height="45.5" as="geometry" />
        </mxCell>
        <mxCell id="yD7QGmuIfpxSSi4D3mGt-157" value="sakura_next.webp" style="rounded=1;fillColor=#23445D;gradientColor=none;strokeColor=none;fontColor=#FFFFFF;fontStyle=1;fontFamily=Tahoma;fontSize=14" parent="1" vertex="1">
          <mxGeometry x="1690" y="1190.5" width="230" height="45.5" as="geometry" />
        </mxCell>
        <mxCell id="yD7QGmuIfpxSSi4D3mGt-158" value="sakaba_karon.webp" style="rounded=1;fillColor=#23445D;gradientColor=none;strokeColor=none;fontColor=#FFFFFF;fontStyle=1;fontFamily=Tahoma;fontSize=14" parent="1" vertex="1">
          <mxGeometry x="1940" y="1130.5000000000002" width="230" height="45.5" as="geometry" />
        </mxCell>
        <mxCell id="yD7QGmuIfpxSSi4D3mGt-159" value="senior_club.webp" style="rounded=1;fillColor=#23445D;gradientColor=none;strokeColor=none;fontColor=#FFFFFF;fontStyle=1;fontFamily=Tahoma;fontSize=14" parent="1" vertex="1">
          <mxGeometry x="1940" y="1190.5000000000002" width="230" height="45.5" as="geometry" />
        </mxCell>
        <mxCell id="yD7QGmuIfpxSSi4D3mGt-160" value="shiragiku.webp" style="rounded=1;fillColor=#23445D;gradientColor=none;strokeColor=none;fontColor=#FFFFFF;fontStyle=1;fontFamily=Tahoma;fontSize=14" parent="1" vertex="1">
          <mxGeometry x="1690" y="1250.5000000000002" width="230" height="45.5" as="geometry" />
        </mxCell>
        <mxCell id="yD7QGmuIfpxSSi4D3mGt-161" value="shuen_yururi.webp" style="rounded=1;fillColor=#23445D;gradientColor=none;strokeColor=none;fontColor=#FFFFFF;fontStyle=1;fontFamily=Tahoma;fontSize=14" parent="1" vertex="1">
          <mxGeometry x="1940" y="1250.5000000000002" width="230" height="45.5" as="geometry" />
        </mxCell>
        <mxCell id="yD7QGmuIfpxSSi4D3mGt-162" value="snack_ai.webp" style="rounded=1;fillColor=#23445D;gradientColor=none;strokeColor=none;fontColor=#FFFFFF;fontStyle=1;fontFamily=Tahoma;fontSize=14" parent="1" vertex="1">
          <mxGeometry x="1690" y="1310.5000000000002" width="230" height="45.5" as="geometry" />
        </mxCell>
        <mxCell id="yD7QGmuIfpxSSi4D3mGt-163" value="snack_saki.webp" style="rounded=1;fillColor=#23445D;gradientColor=none;strokeColor=none;fontColor=#FFFFFF;fontStyle=1;fontFamily=Tahoma;fontSize=14" parent="1" vertex="1">
          <mxGeometry x="1940" y="1310.5000000000002" width="230" height="45.5" as="geometry" />
        </mxCell>
        <mxCell id="yD7QGmuIfpxSSi4D3mGt-164" value="soba_sankaku.webp" style="rounded=1;fillColor=#23445D;gradientColor=none;strokeColor=none;fontColor=#FFFFFF;fontStyle=1;fontFamily=Tahoma;fontSize=14" parent="1" vertex="1">
          <mxGeometry x="1690" y="1371.0000000000002" width="230" height="45.5" as="geometry" />
        </mxCell>
        <mxCell id="yD7QGmuIfpxSSi4D3mGt-165" value="soyogi_an.webp" style="rounded=1;fillColor=#23445D;gradientColor=none;strokeColor=none;fontColor=#FFFFFF;fontStyle=1;fontFamily=Tahoma;fontSize=14" parent="1" vertex="1">
          <mxGeometry x="1940" y="1370.5" width="230" height="45.5" as="geometry" />
        </mxCell>
        <mxCell id="yD7QGmuIfpxSSi4D3mGt-166" value="stand_toyo.webp" style="rounded=1;fillColor=#23445D;gradientColor=none;strokeColor=none;fontColor=#FFFFFF;fontStyle=1;fontFamily=Tahoma;fontSize=14" parent="1" vertex="1">
          <mxGeometry x="1690" y="1430.5" width="230" height="45.5" as="geometry" />
        </mxCell>
        <mxCell id="yD7QGmuIfpxSSi4D3mGt-167" value="stand-sakaba_maharo.webp" style="rounded=1;fillColor=#23445D;gradientColor=none;strokeColor=none;fontColor=#FFFFFF;fontStyle=1;fontFamily=Tahoma;fontSize=14" parent="1" vertex="1">
          <mxGeometry x="1940" y="1430.5000000000002" width="230" height="45.5" as="geometry" />
        </mxCell>
        <mxCell id="yD7QGmuIfpxSSi4D3mGt-168" value="terimi.webp" style="rounded=1;fillColor=#23445D;gradientColor=none;strokeColor=none;fontColor=#FFFFFF;fontStyle=1;fontFamily=Tahoma;fontSize=14" parent="1" vertex="1">
          <mxGeometry x="1690" y="1491.0000000000002" width="230" height="45.5" as="geometry" />
        </mxCell>
        <mxCell id="yD7QGmuIfpxSSi4D3mGt-169" value="tetsukabuto.webp" style="rounded=1;fillColor=#23445D;gradientColor=none;strokeColor=none;fontColor=#FFFFFF;fontStyle=1;fontFamily=Tahoma;fontSize=14" parent="1" vertex="1">
          <mxGeometry x="1940" y="1491.0000000000002" width="230" height="45.5" as="geometry" />
        </mxCell>
        <mxCell id="yD7QGmuIfpxSSi4D3mGt-170" value="the_zoo.webp" style="rounded=1;fillColor=#23445D;gradientColor=none;strokeColor=none;fontColor=#FFFFFF;fontStyle=1;fontFamily=Tahoma;fontSize=14" parent="1" vertex="1">
          <mxGeometry x="1690" y="1550.5000000000002" width="230" height="45.5" as="geometry" />
        </mxCell>
        <mxCell id="yD7QGmuIfpxSSi4D3mGt-171" value="tousen.webp" style="rounded=1;fillColor=#23445D;gradientColor=none;strokeColor=none;fontColor=#FFFFFF;fontStyle=1;fontFamily=Tahoma;fontSize=14" parent="1" vertex="1">
          <mxGeometry x="1940" y="1550.5" width="230" height="45.5" as="geometry" />
        </mxCell>
        <mxCell id="yD7QGmuIfpxSSi4D3mGt-172" value="utanoya.webp" style="rounded=1;fillColor=#23445D;gradientColor=none;strokeColor=none;fontColor=#FFFFFF;fontStyle=1;fontFamily=Tahoma;fontSize=14" parent="1" vertex="1">
          <mxGeometry x="1690" y="1610.5000000000002" width="230" height="45.5" as="geometry" />
        </mxCell>
        <mxCell id="yD7QGmuIfpxSSi4D3mGt-173" value="wataru.webp" style="rounded=1;fillColor=#23445D;gradientColor=none;strokeColor=none;fontColor=#FFFFFF;fontStyle=1;fontFamily=Tahoma;fontSize=14" parent="1" vertex="1">
          <mxGeometry x="1940" y="1610.5000000000002" width="230" height="45.5" as="geometry" />
        </mxCell>
        <mxCell id="yD7QGmuIfpxSSi4D3mGt-174" value="yagi-chan.webp" style="rounded=1;fillColor=#23445D;gradientColor=none;strokeColor=none;fontColor=#FFFFFF;fontStyle=1;fontFamily=Tahoma;fontSize=14" parent="1" vertex="1">
          <mxGeometry x="1690" y="1670.5" width="230" height="45.5" as="geometry" />
        </mxCell>
        <mxCell id="yD7QGmuIfpxSSi4D3mGt-175" value="zen.webp" style="rounded=1;fillColor=#23445D;gradientColor=none;strokeColor=none;fontColor=#FFFFFF;fontStyle=1;fontFamily=Tahoma;fontSize=14" parent="1" vertex="1">
          <mxGeometry x="1940" y="1670.5" width="230" height="45.5" as="geometry" />
        </mxCell>
        <mxCell id="yD7QGmuIfpxSSi4D3mGt-178" style="edgeStyle=orthogonalEdgeStyle;rounded=0;orthogonalLoop=1;jettySize=auto;html=1;exitX=0.5;exitY=1;exitDx=0;exitDy=0;" parent="1" edge="1">
          <mxGeometry relative="1" as="geometry">
            <mxPoint x="1930" y="1725" as="sourcePoint" />
            <mxPoint x="1930" y="1725" as="targetPoint" />
          </mxGeometry>
        </mxCell>
        <mxCell id="yD7QGmuIfpxSSi4D3mGt-179" value="" style="edgeStyle=elbowEdgeStyle;elbow=vertical;strokeWidth=2;rounded=0;entryX=0.5;entryY=0;entryDx=0;entryDy=0;exitX=0.5;exitY=1;exitDx=0;exitDy=0;" parent="1" source="2" target="yD7QGmuIfpxSSi4D3mGt-130" edge="1">
          <mxGeometry x="-23" y="135.5" width="100" height="100" as="geometry">
            <mxPoint x="942" y="215.5" as="sourcePoint" />
            <mxPoint x="1400" y="320" as="targetPoint" />
            <Array as="points">
              <mxPoint x="1995" y="270" />
            </Array>
          </mxGeometry>
        </mxCell>
        <mxCell id="yD7QGmuIfpxSSi4D3mGt-185" value="sakaba_daigaku.webp" style="rounded=1;fillColor=#23445D;gradientColor=none;strokeColor=none;fontColor=#FFFFFF;fontStyle=1;fontFamily=Tahoma;fontSize=14" parent="1" vertex="1">
          <mxGeometry x="1690" y="1130.5" width="230" height="45.5" as="geometry" />
        </mxCell>
        <mxCell id="LaeifT_SB8m0OlA6vYsi-175" value="" style="edgeStyle=orthogonalEdgeStyle;rounded=0;orthogonalLoop=1;jettySize=auto;html=1;entryX=0.5;entryY=0;entryDx=0;entryDy=0;strokeWidth=2;" edge="1" parent="1" source="yD7QGmuIfpxSSi4D3mGt-190" target="yD7QGmuIfpxSSi4D3mGt-193">
          <mxGeometry relative="1" as="geometry">
            <mxPoint x="2310" y="390" as="targetPoint" />
          </mxGeometry>
        </mxCell>
        <mxCell id="yD7QGmuIfpxSSi4D3mGt-190" value="js" style="rounded=1;fillColor=#23445D;gradientColor=none;strokeColor=none;fontColor=#FFFFFF;fontStyle=1;fontFamily=Tahoma;fontSize=14" parent="1" vertex="1">
          <mxGeometry x="2229.5" y="309.04999999999995" width="143" height="45.5" as="geometry" />
        </mxCell>
        <mxCell id="yD7QGmuIfpxSSi4D3mGt-191" value="main.js" style="rounded=1;fillColor=#23445D;gradientColor=none;strokeColor=none;fontColor=#FFFFFF;fontStyle=1;fontFamily=Tahoma;fontSize=14" parent="1" vertex="1">
          <mxGeometry x="2230" y="410" width="143" height="46" as="geometry" />
        </mxCell>
        <mxCell id="yD7QGmuIfpxSSi4D3mGt-194" value="" style="edgeStyle=elbowEdgeStyle;elbow=vertical;strokeWidth=2;rounded=0;entryX=0.5;entryY=0;entryDx=0;entryDy=0;exitX=0.5;exitY=1;exitDx=0;exitDy=0;" parent="1" source="2" target="yD7QGmuIfpxSSi4D3mGt-190" edge="1">
          <mxGeometry x="-23" y="135.5" width="100" height="100" as="geometry">
            <mxPoint x="942" y="215.5" as="sourcePoint" />
            <mxPoint x="1940" y="319" as="targetPoint" />
            <Array as="points">
              <mxPoint x="2175" y="270" />
            </Array>
          </mxGeometry>
        </mxCell>
        <mxCell id="yD7QGmuIfpxSSi4D3mGt-205" value="" style="edgeStyle=elbowEdgeStyle;elbow=vertical;strokeWidth=2;rounded=0;entryX=0.5;entryY=0;entryDx=0;entryDy=0;exitX=0.5;exitY=1;exitDx=0;exitDy=0;" parent="1" source="2" target="yD7QGmuIfpxSSi4D3mGt-197" edge="1">
          <mxGeometry x="-23" y="135.5" width="100" height="100" as="geometry">
            <mxPoint x="1470" y="230" as="sourcePoint" />
            <mxPoint x="3085" y="410" as="targetPoint" />
            <Array as="points">
              <mxPoint x="2060" y="270" />
            </Array>
          </mxGeometry>
        </mxCell>
        <mxCell id="LaeifT_SB8m0OlA6vYsi-177" value="" style="group" vertex="1" connectable="0" parent="1">
          <mxGeometry x="1876.5" y="160" width="160" height="65.5" as="geometry" />
        </mxCell>
        <mxCell id="123" value="" style="fillColor=#CC99FF;strokeColor=none;opacity=30;" parent="LaeifT_SB8m0OlA6vYsi-177" vertex="1">
          <mxGeometry width="160" height="65.5" as="geometry" />
        </mxCell>
        <mxCell id="2" value="jigokudani.net" style="rounded=1;fillColor=#23445D;gradientColor=none;strokeColor=none;fontColor=#FFFFFF;fontStyle=1;fontFamily=Tahoma;fontSize=14" parent="LaeifT_SB8m0OlA6vYsi-177" vertex="1">
          <mxGeometry x="11.5" y="10" width="137" height="45.5" as="geometry" />
        </mxCell>
        <mxCell id="LaeifT_SB8m0OlA6vYsi-141" value="" style="fillColor=#12AAB5;strokeColor=none;opacity=30;container=0;" vertex="1" parent="1">
          <mxGeometry x="3381" y="500.64000000000016" width="179" height="63.22" as="geometry" />
        </mxCell>
        <mxCell id="yD7QGmuIfpxSSi4D3mGt-197" value="smile" style="rounded=1;fillColor=#23445D;gradientColor=none;strokeColor=none;fontColor=#FFFFFF;fontStyle=1;fontFamily=Tahoma;fontSize=14;container=0;" parent="1" vertex="1">
          <mxGeometry x="3009.5" y="309.05" width="143" height="45.5" as="geometry" />
        </mxCell>
        <mxCell id="yD7QGmuIfpxSSi4D3mGt-198" value="about" style="rounded=1;fillColor=#23445D;gradientColor=none;strokeColor=none;fontColor=#FFFFFF;fontStyle=1;fontFamily=Tahoma;fontSize=14;container=0;" parent="1" vertex="1">
          <mxGeometry x="2799.5" y="420.3" width="143" height="45.5" as="geometry" />
        </mxCell>
        <mxCell id="yD7QGmuIfpxSSi4D3mGt-200" value="css" style="rounded=1;fillColor=#23445D;gradientColor=none;strokeColor=none;fontColor=#FFFFFF;fontStyle=1;fontFamily=Tahoma;fontSize=14;container=0;" parent="1" vertex="1">
          <mxGeometry x="3179" y="419.3" width="143" height="45.5" as="geometry" />
        </mxCell>
        <mxCell id="LaeifT_SB8m0OlA6vYsi-146" value="" style="edgeStyle=orthogonalEdgeStyle;rounded=0;orthogonalLoop=1;jettySize=auto;html=1;entryX=0.5;entryY=0;entryDx=0;entryDy=0;strokeWidth=2;" edge="1" parent="1" source="yD7QGmuIfpxSSi4D3mGt-201" target="LaeifT_SB8m0OlA6vYsi-141">
          <mxGeometry relative="1" as="geometry" />
        </mxCell>
        <mxCell id="yD7QGmuIfpxSSi4D3mGt-201" value="img" style="rounded=1;fillColor=#23445D;gradientColor=none;strokeColor=none;fontColor=#FFFFFF;fontStyle=1;fontFamily=Tahoma;fontSize=14;container=0;" parent="1" vertex="1">
          <mxGeometry x="3399" y="420.3" width="143" height="45.5" as="geometry" />
        </mxCell>
        <mxCell id="yD7QGmuIfpxSSi4D3mGt-204" value="" style="edgeStyle=elbowEdgeStyle;elbow=vertical;strokeWidth=2;rounded=0;entryX=0.487;entryY=0.035;entryDx=0;entryDy=0;exitX=0.5;exitY=1;exitDx=0;exitDy=0;entryPerimeter=0;" parent="1" source="yD7QGmuIfpxSSi4D3mGt-197" target="LaeifT_SB8m0OlA6vYsi-143" edge="1">
          <mxGeometry x="2227" y="435.5" width="100" height="100" as="geometry">
            <mxPoint x="3002.5" y="375.2999999999998" as="sourcePoint" />
            <mxPoint x="3614.5" y="420.3" as="targetPoint" />
            <Array as="points">
              <mxPoint x="3343" y="397.00000000000006" />
            </Array>
          </mxGeometry>
        </mxCell>
        <mxCell id="yD7QGmuIfpxSSi4D3mGt-206" value="" style="edgeStyle=elbowEdgeStyle;elbow=vertical;strokeWidth=2;rounded=0;entryX=0.5;entryY=0;entryDx=0;entryDy=0;exitX=0.5;exitY=1;exitDx=0;exitDy=0;" parent="1" source="yD7QGmuIfpxSSi4D3mGt-197" target="yD7QGmuIfpxSSi4D3mGt-201" edge="1">
          <mxGeometry x="2227" y="435.5" width="100" height="100" as="geometry">
            <mxPoint x="3002.5" y="375.2999999999998" as="sourcePoint" />
            <mxPoint x="3286" y="430.75000000000006" as="targetPoint" />
            <Array as="points">
              <mxPoint x="3238" y="397.00000000000006" />
            </Array>
          </mxGeometry>
        </mxCell>
        <mxCell id="yD7QGmuIfpxSSi4D3mGt-207" value="" style="fillColor=#12AAB5;strokeColor=none;opacity=30;container=0;" parent="1" vertex="1">
          <mxGeometry x="2621" y="500.75000000000006" width="500" height="845.25" as="geometry" />
        </mxCell>
        <mxCell id="yD7QGmuIfpxSSi4D3mGt-208" value="asahiya.html" style="rounded=1;fillColor=#23445D;gradientColor=none;strokeColor=none;fontColor=#FFFFFF;fontStyle=1;fontFamily=Tahoma;fontSize=14;container=0;" parent="1" vertex="1">
          <mxGeometry x="2631" y="511.25000000000006" width="230" height="45.5" as="geometry" />
        </mxCell>
        <mxCell id="yD7QGmuIfpxSSi4D3mGt-209" value="bon_marche.html" style="rounded=1;fillColor=#23445D;gradientColor=none;strokeColor=none;fontColor=#FFFFFF;fontStyle=1;fontFamily=Tahoma;fontSize=14;container=0;" parent="1" vertex="1">
          <mxGeometry x="2881" y="511.25000000000006" width="230" height="45.5" as="geometry" />
        </mxCell>
        <mxCell id="yD7QGmuIfpxSSi4D3mGt-210" value="darshana.html" style="rounded=1;fillColor=#23445D;gradientColor=none;strokeColor=none;fontColor=#FFFFFF;fontStyle=1;fontFamily=Tahoma;fontSize=14;container=0;" parent="1" vertex="1">
          <mxGeometry x="2631" y="571.25" width="230" height="45.5" as="geometry" />
        </mxCell>
        <mxCell id="yD7QGmuIfpxSSi4D3mGt-211" value="fukumiya.html" style="rounded=1;fillColor=#23445D;gradientColor=none;strokeColor=none;fontColor=#FFFFFF;fontStyle=1;fontFamily=Tahoma;fontSize=14;container=0;" parent="1" vertex="1">
          <mxGeometry x="2881" y="571.25" width="230" height="45.5" as="geometry" />
        </mxCell>
        <mxCell id="yD7QGmuIfpxSSi4D3mGt-212" value="gengen.html" style="rounded=1;fillColor=#23445D;gradientColor=none;strokeColor=none;fontColor=#FFFFFF;fontStyle=1;fontFamily=Tahoma;fontSize=14;container=0;" parent="1" vertex="1">
          <mxGeometry x="2631" y="631.25" width="230" height="45.5" as="geometry" />
        </mxCell>
        <mxCell id="yD7QGmuIfpxSSi4D3mGt-213" value="gyoza_king.html" style="rounded=1;fillColor=#23445D;gradientColor=none;strokeColor=none;fontColor=#FFFFFF;fontStyle=1;fontFamily=Tahoma;fontSize=14;container=0;" parent="1" vertex="1">
          <mxGeometry x="2881" y="631.25" width="230" height="45.5" as="geometry" />
        </mxCell>
        <mxCell id="yD7QGmuIfpxSSi4D3mGt-214" value="hareru.html" style="rounded=1;fillColor=#23445D;gradientColor=none;strokeColor=none;fontColor=#FFFFFF;fontStyle=1;fontFamily=Tahoma;fontSize=14;container=0;" parent="1" vertex="1">
          <mxGeometry x="2631" y="691.25" width="230" height="45.5" as="geometry" />
        </mxCell>
        <mxCell id="yD7QGmuIfpxSSi4D3mGt-215" value="hexagon.html" style="rounded=1;fillColor=#23445D;gradientColor=none;strokeColor=none;fontColor=#FFFFFF;fontStyle=1;fontFamily=Tahoma;fontSize=14;container=0;" parent="1" vertex="1">
          <mxGeometry x="2881" y="691.25" width="230" height="45.5" as="geometry" />
        </mxCell>
        <mxCell id="yD7QGmuIfpxSSi4D3mGt-216" value="hikari.html" style="rounded=1;fillColor=#23445D;gradientColor=none;strokeColor=none;fontColor=#FFFFFF;fontStyle=1;fontFamily=Tahoma;fontSize=14;container=0;" parent="1" vertex="1">
          <mxGeometry x="2631" y="751.25" width="230" height="45.5" as="geometry" />
        </mxCell>
        <mxCell id="yD7QGmuIfpxSSi4D3mGt-217" value="kametaro.html" style="rounded=1;fillColor=#23445D;gradientColor=none;strokeColor=none;fontColor=#FFFFFF;fontStyle=1;fontFamily=Tahoma;fontSize=14;container=0;" parent="1" vertex="1">
          <mxGeometry x="2881" y="751.25" width="230" height="45.5" as="geometry" />
        </mxCell>
        <mxCell id="yD7QGmuIfpxSSi4D3mGt-218" value="katsusai.html" style="rounded=1;fillColor=#23445D;gradientColor=none;strokeColor=none;fontColor=#FFFFFF;fontStyle=1;fontFamily=Tahoma;fontSize=14;container=0;" parent="1" vertex="1">
          <mxGeometry x="2631" y="811.25" width="230" height="45.5" as="geometry" />
        </mxCell>
        <mxCell id="yD7QGmuIfpxSSi4D3mGt-219" value="kiraku.html" style="rounded=1;fillColor=#23445D;gradientColor=none;strokeColor=none;fontColor=#FFFFFF;fontStyle=1;fontFamily=Tahoma;fontSize=14;container=0;" parent="1" vertex="1">
          <mxGeometry x="2881" y="811.25" width="230" height="45.5" as="geometry" />
        </mxCell>
        <mxCell id="yD7QGmuIfpxSSi4D3mGt-220" value="koyomi.html" style="rounded=1;fillColor=#23445D;gradientColor=none;strokeColor=none;fontColor=#FFFFFF;fontStyle=1;fontFamily=Tahoma;fontSize=14;container=0;" parent="1" vertex="1">
          <mxGeometry x="2631" y="871.25" width="230" height="45.5" as="geometry" />
        </mxCell>
        <mxCell id="yD7QGmuIfpxSSi4D3mGt-221" value="kuwadori.html" style="rounded=1;fillColor=#23445D;gradientColor=none;strokeColor=none;fontColor=#FFFFFF;fontStyle=1;fontFamily=Tahoma;fontSize=14;container=0;" parent="1" vertex="1">
          <mxGeometry x="2881" y="871.25" width="230" height="45.5" as="geometry" />
        </mxCell>
        <mxCell id="yD7QGmuIfpxSSi4D3mGt-222" value="matsuya.html" style="rounded=1;fillColor=#23445D;gradientColor=none;strokeColor=none;fontColor=#FFFFFF;fontStyle=1;fontFamily=Tahoma;fontSize=14;container=0;" parent="1" vertex="1">
          <mxGeometry x="2631" y="931.25" width="230" height="45.5" as="geometry" />
        </mxCell>
        <mxCell id="yD7QGmuIfpxSSi4D3mGt-223" value="mio.html" style="rounded=1;fillColor=#23445D;gradientColor=none;strokeColor=none;fontColor=#FFFFFF;fontStyle=1;fontFamily=Tahoma;fontSize=14;container=0;" parent="1" vertex="1">
          <mxGeometry x="2881" y="931.25" width="230" height="45.5" as="geometry" />
        </mxCell>
        <mxCell id="yD7QGmuIfpxSSi4D3mGt-224" value="mirow.html" style="rounded=1;fillColor=#23445D;gradientColor=none;strokeColor=none;fontColor=#FFFFFF;fontStyle=1;fontFamily=Tahoma;fontSize=14;container=0;" parent="1" vertex="1">
          <mxGeometry x="2631" y="991.25" width="230" height="45.5" as="geometry" />
        </mxCell>
        <mxCell id="yD7QGmuIfpxSSi4D3mGt-225" value="nagashiro.html" style="rounded=1;fillColor=#23445D;gradientColor=none;strokeColor=none;fontColor=#FFFFFF;fontStyle=1;fontFamily=Tahoma;fontSize=14;container=0;" parent="1" vertex="1">
          <mxGeometry x="2881" y="991.25" width="230" height="45.5" as="geometry" />
        </mxCell>
        <mxCell id="yD7QGmuIfpxSSi4D3mGt-226" value="nikuyakiya.html" style="rounded=1;fillColor=#23445D;gradientColor=none;strokeColor=none;fontColor=#FFFFFF;fontStyle=1;fontFamily=Tahoma;fontSize=14;container=0;" parent="1" vertex="1">
          <mxGeometry x="2631" y="1051.25" width="230" height="45.5" as="geometry" />
        </mxCell>
        <mxCell id="yD7QGmuIfpxSSi4D3mGt-227" value="saizeriya_oasis.html" style="rounded=1;fillColor=#23445D;gradientColor=none;strokeColor=none;fontColor=#FFFFFF;fontStyle=1;fontFamily=Tahoma;fontSize=14;container=0;" parent="1" vertex="1">
          <mxGeometry x="2881" y="1051.25" width="230" height="45.5" as="geometry" />
        </mxCell>
        <mxCell id="yD7QGmuIfpxSSi4D3mGt-228" value="sanukiya.html" style="rounded=1;fillColor=#23445D;gradientColor=none;strokeColor=none;fontColor=#FFFFFF;fontStyle=1;fontFamily=Tahoma;fontSize=14;container=0;" parent="1" vertex="1">
          <mxGeometry x="2631" y="1111.25" width="230" height="45.5" as="geometry" />
        </mxCell>
        <mxCell id="yD7QGmuIfpxSSi4D3mGt-229" value="senyamaru.html" style="rounded=1;fillColor=#23445D;gradientColor=none;strokeColor=none;fontColor=#FFFFFF;fontStyle=1;fontFamily=Tahoma;fontSize=14;container=0;" parent="1" vertex="1">
          <mxGeometry x="2881" y="1111.25" width="230" height="45.5" as="geometry" />
        </mxCell>
        <mxCell id="yD7QGmuIfpxSSi4D3mGt-230" value="shakarikiba-ru.html" style="rounded=1;fillColor=#23445D;gradientColor=none;strokeColor=none;fontColor=#FFFFFF;fontStyle=1;fontFamily=Tahoma;fontSize=14;container=0;" parent="1" vertex="1">
          <mxGeometry x="2631" y="1171.25" width="230" height="45.5" as="geometry" />
        </mxCell>
        <mxCell id="yD7QGmuIfpxSSi4D3mGt-231" value="tanto_tanto.html" style="rounded=1;fillColor=#23445D;gradientColor=none;strokeColor=none;fontColor=#FFFFFF;fontStyle=1;fontFamily=Tahoma;fontSize=14;container=0;" parent="1" vertex="1">
          <mxGeometry x="2881" y="1171.25" width="230" height="45.5" as="geometry" />
        </mxCell>
        <mxCell id="yD7QGmuIfpxSSi4D3mGt-232" value="tori_megane.html" style="rounded=1;fillColor=#23445D;gradientColor=none;strokeColor=none;fontColor=#FFFFFF;fontStyle=1;fontFamily=Tahoma;fontSize=14;container=0;" parent="1" vertex="1">
          <mxGeometry x="2631" y="1231.25" width="230" height="45.5" as="geometry" />
        </mxCell>
        <mxCell id="yD7QGmuIfpxSSi4D3mGt-233" value="torikizoku.html" style="rounded=1;fillColor=#23445D;gradientColor=none;strokeColor=none;fontColor=#FFFFFF;fontStyle=1;fontFamily=Tahoma;fontSize=14;container=0;" parent="1" vertex="1">
          <mxGeometry x="2881" y="1231.25" width="230" height="45.5" as="geometry" />
        </mxCell>
        <mxCell id="yD7QGmuIfpxSSi4D3mGt-234" value="toriton-chan.html" style="rounded=1;fillColor=#23445D;gradientColor=none;strokeColor=none;fontColor=#FFFFFF;fontStyle=1;fontFamily=Tahoma;fontSize=14;container=0;" parent="1" vertex="1">
          <mxGeometry x="2756" y="1291.2499999999998" width="230" height="45.5" as="geometry" />
        </mxCell>
        <mxCell id="LaeifT_SB8m0OlA6vYsi-123" value="" style="edgeStyle=elbowEdgeStyle;elbow=vertical;strokeWidth=2;rounded=0;entryX=0.5;entryY=0;entryDx=0;entryDy=0;" edge="1" parent="1" source="yD7QGmuIfpxSSi4D3mGt-198" target="yD7QGmuIfpxSSi4D3mGt-207">
          <mxGeometry x="2227" y="435.5" width="100" height="100" as="geometry">
            <mxPoint x="2731" y="465.8" as="sourcePoint" />
            <mxPoint x="2731" y="499.8" as="targetPoint" />
          </mxGeometry>
        </mxCell>
        <mxCell id="LaeifT_SB8m0OlA6vYsi-129" value="" style="fillColor=#12AAB5;strokeColor=none;opacity=30;container=0;" vertex="1" parent="1">
          <mxGeometry x="3161" y="499.8" width="179" height="424.95" as="geometry" />
        </mxCell>
        <mxCell id="LaeifT_SB8m0OlA6vYsi-130" value="about.css" style="rounded=1;fillColor=#23445D;gradientColor=none;strokeColor=none;fontColor=#FFFFFF;fontStyle=1;fontFamily=Tahoma;fontSize=14;container=0;" vertex="1" parent="1">
          <mxGeometry x="3171" y="510.3" width="159" height="45.5" as="geometry" />
        </mxCell>
        <mxCell id="LaeifT_SB8m0OlA6vYsi-131" value="common.css" style="rounded=1;fillColor=#23445D;gradientColor=none;strokeColor=none;fontColor=#FFFFFF;fontStyle=1;fontFamily=Tahoma;fontSize=14;container=0;" vertex="1" parent="1">
          <mxGeometry x="3171" y="570.3" width="159" height="45.5" as="geometry" />
        </mxCell>
        <mxCell id="LaeifT_SB8m0OlA6vYsi-134" value="index.css" style="rounded=1;fillColor=#23445D;gradientColor=none;strokeColor=none;fontColor=#FFFFFF;fontStyle=1;fontFamily=Tahoma;fontSize=14;container=0;" vertex="1" parent="1">
          <mxGeometry x="3171" y="631" width="159" height="45.5" as="geometry" />
        </mxCell>
        <mxCell id="LaeifT_SB8m0OlA6vYsi-135" value="release_note.css" style="rounded=1;fillColor=#23445D;gradientColor=none;strokeColor=none;fontColor=#FFFFFF;fontStyle=1;fontFamily=Tahoma;fontSize=14;container=0;" vertex="1" parent="1">
          <mxGeometry x="3171" y="691" width="159" height="45.5" as="geometry" />
        </mxCell>
        <mxCell id="LaeifT_SB8m0OlA6vYsi-136" value="reset.css" style="rounded=1;fillColor=#23445D;gradientColor=none;strokeColor=none;fontColor=#FFFFFF;fontStyle=1;fontFamily=Tahoma;fontSize=14;container=0;" vertex="1" parent="1">
          <mxGeometry x="3171" y="749.3" width="159" height="45.5" as="geometry" />
        </mxCell>
        <mxCell id="LaeifT_SB8m0OlA6vYsi-137" value="site-map.css" style="rounded=1;fillColor=#23445D;gradientColor=none;strokeColor=none;fontColor=#FFFFFF;fontStyle=1;fontFamily=Tahoma;fontSize=14;container=0;" vertex="1" parent="1">
          <mxGeometry x="3171" y="809.3" width="159" height="45.5" as="geometry" />
        </mxCell>
        <mxCell id="LaeifT_SB8m0OlA6vYsi-138" value="summary.css" style="rounded=1;fillColor=#23445D;gradientColor=none;strokeColor=none;fontColor=#FFFFFF;fontStyle=1;fontFamily=Tahoma;fontSize=14;container=0;" vertex="1" parent="1">
          <mxGeometry x="3171" y="869.3" width="159" height="45.5" as="geometry" />
        </mxCell>
        <mxCell id="LaeifT_SB8m0OlA6vYsi-139" value="" style="edgeStyle=elbowEdgeStyle;elbow=vertical;strokeWidth=2;rounded=0;entryX=0.5;entryY=0;entryDx=0;entryDy=0;exitX=0.5;exitY=1;exitDx=0;exitDy=0;" edge="1" parent="1" source="yD7QGmuIfpxSSi4D3mGt-200" target="LaeifT_SB8m0OlA6vYsi-129">
          <mxGeometry x="2227" y="435.5" width="100" height="100" as="geometry">
            <mxPoint x="2880" y="474.75000000000006" as="sourcePoint" />
            <mxPoint x="2880" y="510.75000000000006" as="targetPoint" />
          </mxGeometry>
        </mxCell>
        <mxCell id="LaeifT_SB8m0OlA6vYsi-140" value="smile.png" style="rounded=1;fillColor=#23445D;gradientColor=none;strokeColor=none;fontColor=#FFFFFF;fontStyle=1;fontFamily=Tahoma;fontSize=14;container=0;" vertex="1" parent="1">
          <mxGeometry x="3391" y="509.50000000000006" width="159" height="45.5" as="geometry" />
        </mxCell>
        <mxCell id="LaeifT_SB8m0OlA6vYsi-142" value="" style="fillColor=#12AAB5;strokeColor=none;opacity=30;container=0;" vertex="1" parent="1">
          <mxGeometry x="3600.5" y="500.75000000000006" width="162" height="65" as="geometry" />
        </mxCell>
        <mxCell id="LaeifT_SB8m0OlA6vYsi-143" value="js" style="rounded=1;fillColor=#23445D;gradientColor=none;strokeColor=none;fontColor=#FFFFFF;fontStyle=1;fontFamily=Tahoma;fontSize=14;container=0;" vertex="1" parent="1">
          <mxGeometry x="3610.5" y="421.25000000000006" width="143" height="45.5" as="geometry" />
        </mxCell>
        <mxCell id="LaeifT_SB8m0OlA6vYsi-144" value="main.js" style="rounded=1;fillColor=#23445D;gradientColor=none;strokeColor=none;fontColor=#FFFFFF;fontStyle=1;fontFamily=Tahoma;fontSize=14;container=0;" vertex="1" parent="1">
          <mxGeometry x="3610.5" y="510.3" width="143" height="45.5" as="geometry" />
        </mxCell>
        <mxCell id="LaeifT_SB8m0OlA6vYsi-147" value="" style="edgeStyle=orthogonalEdgeStyle;rounded=0;orthogonalLoop=1;jettySize=auto;html=1;entryX=0.5;entryY=0;entryDx=0;entryDy=0;strokeWidth=2;exitX=0.495;exitY=0.928;exitDx=0;exitDy=0;exitPerimeter=0;" edge="1" parent="1" source="LaeifT_SB8m0OlA6vYsi-143">
          <mxGeometry relative="1" as="geometry">
            <mxPoint x="3681.2700000000004" y="465.8" as="sourcePoint" />
            <mxPoint x="3681.2700000000004" y="500.8" as="targetPoint" />
          </mxGeometry>
        </mxCell>
        <mxCell id="LaeifT_SB8m0OlA6vYsi-148" value="" style="edgeStyle=elbowEdgeStyle;elbow=vertical;strokeWidth=2;rounded=0;entryX=0.5;entryY=0;entryDx=0;entryDy=0;exitX=0.5;exitY=1;exitDx=0;exitDy=0;" edge="1" parent="1" source="yD7QGmuIfpxSSi4D3mGt-197" target="yD7QGmuIfpxSSi4D3mGt-198">
          <mxGeometry x="2227" y="435.5" width="100" height="100" as="geometry">
            <mxPoint x="3002.5" y="375.2999999999998" as="sourcePoint" />
            <mxPoint x="3481" y="430.75000000000006" as="targetPoint" />
            <Array as="points">
              <mxPoint x="2939" y="397.00000000000006" />
            </Array>
          </mxGeometry>
        </mxCell>
        <mxCell id="LaeifT_SB8m0OlA6vYsi-149" value="" style="edgeStyle=elbowEdgeStyle;elbow=vertical;strokeWidth=2;rounded=0;entryX=0.5;entryY=0;entryDx=0;entryDy=0;exitX=0.5;exitY=1;exitDx=0;exitDy=0;" edge="1" parent="1" source="yD7QGmuIfpxSSi4D3mGt-197" target="yD7QGmuIfpxSSi4D3mGt-200">
          <mxGeometry x="2227" y="435.5" width="100" height="100" as="geometry">
            <mxPoint x="3002.5" y="375.2999999999998" as="sourcePoint" />
            <mxPoint x="2881" y="430.75000000000006" as="targetPoint" />
            <Array as="points">
              <mxPoint x="3203" y="397.00000000000006" />
            </Array>
          </mxGeometry>
        </mxCell>
        <mxCell id="LaeifT_SB8m0OlA6vYsi-152" value="" style="fillColor=#12AAB5;strokeColor=none;opacity=30;container=0;" vertex="1" parent="1">
          <mxGeometry x="2423" y="399.50000000000006" width="163" height="246" as="geometry" />
        </mxCell>
        <mxCell id="LaeifT_SB8m0OlA6vYsi-158" value="about.html" style="rounded=1;fillColor=#23445D;gradientColor=none;strokeColor=none;fontColor=#FFFFFF;fontStyle=1;fontFamily=Tahoma;fontSize=14;container=0;" vertex="1" parent="1">
          <mxGeometry x="2433" y="410.00000000000006" width="143" height="45.5" as="geometry" />
        </mxCell>
        <mxCell id="LaeifT_SB8m0OlA6vYsi-160" value="index.html" style="rounded=1;fillColor=#23445D;gradientColor=none;strokeColor=none;fontColor=#FFFFFF;fontStyle=1;fontFamily=Tahoma;fontSize=14;container=0;" vertex="1" parent="1">
          <mxGeometry x="2433" y="470.00000000000006" width="143" height="45.5" as="geometry" />
        </mxCell>
        <mxCell id="LaeifT_SB8m0OlA6vYsi-162" value="release_note.html" style="rounded=1;fillColor=#23445D;gradientColor=none;strokeColor=none;fontColor=#FFFFFF;fontStyle=1;fontFamily=Tahoma;fontSize=14;container=0;" vertex="1" parent="1">
          <mxGeometry x="2433" y="530" width="143" height="45.5" as="geometry" />
        </mxCell>
        <mxCell id="LaeifT_SB8m0OlA6vYsi-164" value="site-map.html" style="rounded=1;fillColor=#23445D;gradientColor=none;strokeColor=none;fontColor=#FFFFFF;fontStyle=1;fontFamily=Tahoma;fontSize=14;container=0;" vertex="1" parent="1">
          <mxGeometry x="2433" y="590" width="143" height="45.5" as="geometry" />
        </mxCell>
        <mxCell id="LaeifT_SB8m0OlA6vYsi-166" value="" style="edgeStyle=elbowEdgeStyle;elbow=horizontal;endArrow=classic;html=1;curved=0;rounded=0;endSize=8;startSize=8;exitX=0;exitY=0.5;exitDx=0;exitDy=0;strokeWidth=2;entryX=0;entryY=0.5;entryDx=0;entryDy=0;" edge="1" parent="1" source="LaeifT_SB8m0OlA6vYsi-160" target="LaeifT_SB8m0OlA6vYsi-162">
          <mxGeometry width="50" height="50" relative="1" as="geometry">
            <mxPoint x="2363" y="1048.75" as="sourcePoint" />
            <mxPoint x="2589" y="658.75" as="targetPoint" />
            <Array as="points">
              <mxPoint x="2406" y="790.5" />
            </Array>
          </mxGeometry>
        </mxCell>
        <mxCell id="LaeifT_SB8m0OlA6vYsi-167" value="" style="edgeStyle=elbowEdgeStyle;elbow=horizontal;endArrow=classic;html=1;curved=0;rounded=0;endSize=8;startSize=8;exitX=0;exitY=0.5;exitDx=0;exitDy=0;strokeWidth=2;entryX=0;entryY=0.5;entryDx=0;entryDy=0;" edge="1" parent="1" source="LaeifT_SB8m0OlA6vYsi-160" target="LaeifT_SB8m0OlA6vYsi-164">
          <mxGeometry width="50" height="50" relative="1" as="geometry">
            <mxPoint x="2443" y="743.5" as="sourcePoint" />
            <mxPoint x="2443" y="863.5" as="targetPoint" />
            <Array as="points">
              <mxPoint x="2406" y="850.5" />
            </Array>
          </mxGeometry>
        </mxCell>
        <mxCell id="LaeifT_SB8m0OlA6vYsi-171" value="" style="edgeStyle=elbowEdgeStyle;elbow=horizontal;endArrow=classic;html=1;curved=0;rounded=0;endSize=8;startSize=8;exitX=0;exitY=0.5;exitDx=0;exitDy=0;strokeWidth=2;entryX=0;entryY=0.5;entryDx=0;entryDy=0;" edge="1" parent="1" source="LaeifT_SB8m0OlA6vYsi-160" target="LaeifT_SB8m0OlA6vYsi-158">
          <mxGeometry width="50" height="50" relative="1" as="geometry">
            <mxPoint x="2443" y="502.50000000000006" as="sourcePoint" />
            <mxPoint x="2443" y="622.5" as="targetPoint" />
            <Array as="points">
              <mxPoint x="2406" y="469.50000000000006" />
            </Array>
          </mxGeometry>
        </mxCell>
        <mxCell id="LaeifT_SB8m0OlA6vYsi-172" value="" style="edgeStyle=elbowEdgeStyle;elbow=vertical;strokeWidth=2;rounded=0;entryX=0.5;entryY=0;entryDx=0;entryDy=0;exitX=0;exitY=0.5;exitDx=0;exitDy=0;" edge="1" parent="1" source="yD7QGmuIfpxSSi4D3mGt-197" target="LaeifT_SB8m0OlA6vYsi-152">
          <mxGeometry x="2227" y="435.5" width="100" height="100" as="geometry">
            <mxPoint x="3074.5" y="364.5499999999998" as="sourcePoint" />
            <mxPoint x="2943" y="410.00000000000006" as="targetPoint" />
            <Array as="points">
              <mxPoint x="2623" y="332.00000000000006" />
            </Array>
          </mxGeometry>
        </mxCell>
      </root>
    </mxGraphModel>
  </diagram>
</mxfile>
